<?xml version="1.0" encoding="UTF-8" standalone="no"?>
<svg
   xmlns:dc="http://purl.org/dc/elements/1.1/"
   xmlns:cc="http://creativecommons.org/ns#"
   xmlns:rdf="http://www.w3.org/1999/02/22-rdf-syntax-ns#"
   xmlns:svg="http://www.w3.org/2000/svg"
   xmlns="http://www.w3.org/2000/svg"
   viewBox="0 0 1333.3333 191.64"
   height="191.64"
   width="1333.3333"
   xml:space="preserve"
   id="svg2"
   version="1.1"><metadata
     id="metadata8"><rdf:RDF><cc:Work
         rdf:about=""><dc:format>image/svg+xml</dc:format><dc:type
           rdf:resource="http://purl.org/dc/dcmitype/StillImage" /></cc:Work></rdf:RDF></metadata><defs
     id="defs6" /><g
     transform="matrix(1.3333333,0,0,-1.3333333,0,191.64)"
     stroke="none" fill="#7C82B6" fill-rule="nonzero" fill-opacity="1"
     id="g10"><g
       transform="scale(0.1)"
       id="g12"><path
         id="path14"
         d="M 1183.4,193.25 H 681.77 l 125.41,272.867 125.402,272.871 0.238,-0.515 0.231,0.515 h 4.683 L 1094.58,393.98 1171.4,219.879 1183.49,193.25 Z M 1456.81,59.9414 973.813,1115.38 c -3.055,6.1 -7.067,11.3 -13.594,14.37 v 89.48 h 231.531 v 6.95 l -26.64,42.41 -36.93,58.78 36.93,58.78 26.64,42.4 v 8.79 H 960.219 916.484 v -218.11 -90.76 c -5.199,-3.19 -9.035,-7.8 -11.683,-13.09 L 642.336,547.383 470.559,922.75 c -4.715,9.391 -10.985,17.246 -26.672,17.246 h -15.684 c -14.101,0 -21.957,-7.855 -26.664,-17.246 L 65.8555,196.309 53.707,169.371 3.14453,59.9414 C -6.27344,39.5781 6.28906,19.1484 29.8086,19.1484 H 58.2773 166.23 l 26.911,-0.1796 671.738,0.1796 h 190.041 238.8 59.13 77.32 c 23.52,0 36.06,20.4297 26.64,40.793" /><path
         id="path16"
         d="m 2010.92,482.277 c -38.47,0 -69.53,-1.476 -94.68,-4.425 V 226.34 c 35.49,-2.949 54.74,-4.43 105.03,-4.43 127.24,0 187.88,48.809 187.88,130.192 0,82.839 -65.09,130.175 -198.23,130.175 z m 19.24,411.278 c -45.88,0 -78.43,-4.434 -113.92,-10.352 V 656.855 c 28.1,-2.964 47.33,-4.441 93.2,-4.441 121.31,0 181.97,44.383 181.97,122.789 0,65.094 -54.75,118.352 -161.25,118.352 z M 1996.12,7.39063 c -94.67,0 -217.47,8.89067 -323.98,22.18747 V 1088.84 c 78.4,11.84 214.51,23.67 303.26,23.67 315.12,0 474.9,-140.541 474.9,-291.447 0,-113.907 -63.62,-190.836 -186.4,-241.137 147.94,-44.383 217.47,-130.184 217.47,-254.465 0,-168.641 -159.78,-318.07037 -485.25,-318.07037" /><path
         id="path18"
         d="M 3002.15,667.215 2894.17,406.84 h 214.51 z M 3269.94,17.75 3188.56,214.512 H 2814.28 L 2732.91,17.75 h -255.93 l 510.39,1093.28 h 34.02 L 3531.79,17.75 h -261.85" /><path
         id="path20"
         d="m 4088.08,0 c -353.58,0 -593.24,238.191 -593.24,559.211 0,322.508 239.66,560.699 593.24,560.699 125.75,0 241.14,-36.99 338.78,-94.68 l -76.93,-213.042 c -79.89,44.382 -170.13,72.492 -258.89,72.492 -202.68,0 -328.43,-124.266 -328.43,-325.469 0,-201.199 125.75,-325.461 328.43,-325.461 88.76,0 189.36,29.578 270.73,79.879 l 75.46,-213.027 C 4342.53,38.4688 4212.35,0 4088.08,0" /><path
         id="path22"
         d="M 5252.41,17.75 4854.46,525.184 V 17.75 h -251.48 v 1084.4 h 251.48 V 630.227 l 380.22,471.923 h 297.35 L 5086.73,585.844 5555.7,17.75 h -303.29" /><path
         id="path24"
         d="m 5674.09,17.75 v 1084.4 h 686.45 V 871.371 H 5925.6 V 677.559 h 396.48 V 458.609 H 5925.6 v -211.55 h 434.94 V 17.75 h -686.45" /><path
         id="path26"
         d="m 6933.1,884.68 c -38.46,0 -62.13,-1.477 -97.63,-7.395 V 578.449 c 32.55,-2.965 50.29,-4.441 79.89,-4.441 119.82,0 196.75,57.691 196.75,167.172 0,90.242 -71,143.5 -179.01,143.5 z M 7156.49,17.75 6971.57,371.32 c -14.81,-1.468 -28.1,-1.468 -42.92,-1.468 -36.96,0 -57.68,1.468 -93.18,2.957 V 17.75 H 6583.96 V 1091.8 c 91.72,10.35 192.32,17.75 319.56,17.75 337.3,0 470.44,-161.253 470.44,-359.495 0,-128.711 -69.53,-244.098 -186.41,-313.633 L 7442.02,17.75 h -285.53" /><path
         id="path28"
         d="M 8224.68,17.75 7826.7,525.184 V 17.75 h -251.49 v 1084.4 H 7826.7 V 630.227 l 380.21,471.923 h 297.36 L 8058.98,585.844 8527.93,17.75 h -303.25" /><path
         id="path30"
         d="m 8683.32,17.75 v 1084.4 h 251.5 V 17.75 h -251.5" /><path
         id="path32"
         d="m 10000,1092.86 v 9.29 h -151.85 v 0 H 9097.56 V 871.371 h 325.47 V 17.75 h 251.51 v 853.621 h 173.61 v 0.223 H 10000 v 7.347 l -28.15,44.825 -39.04,62.136 39.04,62.138 28.15,44.82" /></g></g></svg>
