<?xml version="1.0" encoding="utf-8"?>
<!-- Generator: Adobe Illustrator 21.0.2, SVG Export Plug-In . SVG Version: 6.00 Build 0)  -->
<svg version="1.1" id="Layer_1" xmlns="http://www.w3.org/2000/svg" xmlns:xlink="http://www.w3.org/1999/xlink" x="0px" y="0px"
	 viewBox="0 0 204 50" style="enable-background:new 0 0 204 50;" xml:space="preserve">
<g fill="#7C82B6">
	<g>
		<path d="M162.3,25c-0.2,0.1-0.4,0.1-0.6,0.2c-0.2,0-0.4,0.1-0.7,0.1c-0.2,0-0.5,0.1-0.7,0.1c-0.2,0-0.4,0.1-0.6,0.2
			c-0.2,0.1-0.4,0.2-0.6,0.3c-0.2,0.1-0.3,0.3-0.4,0.4c-0.1,0.2-0.1,0.4-0.1,0.7c0,0.3,0,0.5,0.1,0.7c0.1,0.2,0.2,0.3,0.4,0.4
			c0.2,0.1,0.4,0.2,0.6,0.2c0.2,0,0.4,0.1,0.7,0.1c0.6,0,1-0.1,1.3-0.3c0.3-0.2,0.5-0.4,0.7-0.7c0.1-0.3,0.2-0.5,0.3-0.8
			c0-0.3,0.1-0.5,0.1-0.7v-1.1C162.7,24.9,162.5,25,162.3,25 M156.6,20.9c0.3-0.5,0.7-0.8,1.1-1.1c0.5-0.3,1-0.5,1.6-0.6
			c0.6-0.1,1.2-0.2,1.8-0.2c0.5,0,1.1,0,1.6,0.1c0.5,0.1,1,0.2,1.5,0.4c0.4,0.2,0.8,0.5,1.1,0.9c0.3,0.4,0.4,0.9,0.4,1.5v5.5
			c0,0.5,0,0.9,0.1,1.4c0.1,0.4,0.1,0.8,0.3,1h-3c-0.1-0.2-0.1-0.3-0.1-0.5c0-0.2-0.1-0.3-0.1-0.5c-0.5,0.5-1,0.8-1.6,1
			c-0.6,0.2-1.3,0.3-1.9,0.3c-0.5,0-1-0.1-1.4-0.2c-0.4-0.1-0.8-0.3-1.1-0.6c-0.3-0.3-0.6-0.6-0.8-1c-0.2-0.4-0.3-0.9-0.3-1.4
			c0-0.6,0.1-1.1,0.3-1.5c0.2-0.4,0.5-0.7,0.8-0.9c0.3-0.2,0.7-0.4,1.2-0.5c0.4-0.1,0.9-0.2,1.3-0.3c0.4-0.1,0.9-0.1,1.3-0.2
			c0.4,0,0.8-0.1,1.1-0.2c0.3-0.1,0.6-0.2,0.8-0.4c0.2-0.2,0.3-0.4,0.3-0.7c0-0.3-0.1-0.6-0.2-0.7c-0.1-0.2-0.2-0.3-0.4-0.4
			c-0.2-0.1-0.4-0.2-0.6-0.2c-0.2,0-0.5-0.1-0.7-0.1c-0.6,0-1,0.1-1.3,0.4c-0.3,0.2-0.5,0.7-0.6,1.2h-2.9
			C156.1,21.9,156.3,21.4,156.6,20.9 M154.6,19.4v1.9h-2.1v5.2c0,0.5,0.1,0.8,0.2,1c0.2,0.2,0.5,0.2,1,0.2c0.2,0,0.3,0,0.5,0
			c0.2,0,0.3,0,0.4-0.1V30c-0.2,0-0.5,0.1-0.8,0.1c-0.3,0-0.6,0-0.9,0c-0.5,0-0.9,0-1.3-0.1c-0.4-0.1-0.8-0.2-1.1-0.4
			c-0.3-0.2-0.5-0.4-0.7-0.8c-0.2-0.3-0.3-0.8-0.3-1.3v-6.3h-1.8v-1.9h1.8v-3.2h2.9v3.2H154.6z M143.4,25c-0.2,0.1-0.4,0.1-0.6,0.2
			c-0.2,0-0.4,0.1-0.7,0.1c-0.2,0-0.5,0.1-0.7,0.1c-0.2,0-0.4,0.1-0.6,0.2c-0.2,0.1-0.4,0.2-0.6,0.3c-0.2,0.1-0.3,0.3-0.4,0.4
			c-0.1,0.2-0.1,0.4-0.1,0.7c0,0.3,0,0.5,0.1,0.7c0.1,0.2,0.2,0.3,0.4,0.4c0.2,0.1,0.4,0.2,0.6,0.2c0.2,0,0.4,0.1,0.7,0.1
			c0.6,0,1-0.1,1.3-0.3c0.3-0.2,0.5-0.4,0.7-0.7c0.2-0.3,0.2-0.5,0.3-0.8c0-0.3,0-0.5,0-0.7v-1.1C143.7,24.9,143.5,25,143.4,25
			 M137.6,20.9c0.3-0.5,0.7-0.8,1.2-1.1c0.5-0.3,1-0.5,1.6-0.6c0.6-0.1,1.2-0.2,1.8-0.2c0.5,0,1.1,0,1.6,0.1c0.5,0.1,1,0.2,1.5,0.4
			c0.5,0.2,0.8,0.5,1.1,0.9c0.3,0.4,0.4,0.9,0.4,1.5v5.5c0,0.5,0,0.9,0.1,1.4c0.1,0.4,0.1,0.8,0.3,1h-3c-0.1-0.2-0.1-0.3-0.1-0.5
			c0-0.2-0.1-0.3-0.1-0.5c-0.5,0.5-1,0.8-1.6,1c-0.6,0.2-1.3,0.3-1.9,0.3c-0.5,0-1-0.1-1.4-0.2c-0.4-0.1-0.8-0.3-1.1-0.6
			c-0.3-0.3-0.6-0.6-0.8-1c-0.2-0.4-0.3-0.9-0.3-1.4c0-0.6,0.1-1.1,0.3-1.5c0.2-0.4,0.5-0.7,0.8-0.9c0.3-0.2,0.7-0.4,1.1-0.5
			c0.4-0.1,0.9-0.2,1.3-0.3c0.4-0.1,0.9-0.1,1.3-0.2c0.4,0,0.8-0.1,1.1-0.2c0.3-0.1,0.6-0.2,0.8-0.4c0.2-0.2,0.3-0.4,0.3-0.7
			c0-0.3,0-0.6-0.1-0.7c-0.1-0.2-0.2-0.3-0.4-0.4c-0.2-0.1-0.4-0.2-0.6-0.2c-0.2,0-0.5-0.1-0.7-0.1c-0.6,0-1,0.1-1.3,0.4
			c-0.3,0.2-0.5,0.7-0.6,1.2h-2.9C137.1,21.9,137.3,21.4,137.6,20.9 M132.2,28.6c-0.3,0.6-0.8,1-1.3,1.2c-0.6,0.3-1.2,0.4-1.9,0.4
			c-0.8,0-1.5-0.2-2.1-0.5c-0.6-0.3-1.1-0.7-1.5-1.3c-0.4-0.5-0.7-1.1-0.9-1.8c-0.2-0.7-0.3-1.4-0.3-2.1c0-0.7,0.1-1.4,0.3-2.1
			c0.2-0.7,0.5-1.2,0.9-1.8c0.4-0.5,0.9-0.9,1.5-1.2c0.6-0.3,1.3-0.5,2.1-0.5c0.6,0,1.2,0.1,1.8,0.4c0.6,0.3,1,0.7,1.3,1.2h0v-5.3
			h2.9V30h-2.8L132.2,28.6L132.2,28.6z M132.1,23.4c-0.1-0.4-0.2-0.8-0.4-1.1c-0.2-0.3-0.5-0.6-0.8-0.7c-0.3-0.2-0.7-0.3-1.2-0.3
			c-0.5,0-0.9,0.1-1.2,0.3c-0.3,0.2-0.6,0.4-0.8,0.8c-0.2,0.3-0.3,0.7-0.4,1.1c-0.1,0.4-0.1,0.8-0.1,1.3c0,0.4,0,0.8,0.1,1.2
			c0.1,0.4,0.3,0.8,0.5,1.1c0.2,0.3,0.5,0.6,0.8,0.8c0.3,0.2,0.7,0.3,1.2,0.3c0.5,0,0.9-0.1,1.2-0.3c0.3-0.2,0.6-0.4,0.8-0.8
			c0.2-0.3,0.3-0.7,0.4-1.1c0.1-0.4,0.1-0.8,0.1-1.3C132.2,24.2,132.2,23.8,132.1,23.4"/>
		<path d="M127.5,48.1h-2.9V37.5h2.9V48.1z M124.6,35.9h2.9v-2.4h-2.9V35.9z M196.2,45.6c-0.4-0.4-0.7-1.1-0.7-2.1h7.6
			c0.1-0.8,0-1.6-0.2-2.4c-0.2-0.8-0.5-1.4-0.9-2c-0.4-0.6-1-1.1-1.6-1.4c-0.7-0.3-1.5-0.5-2.4-0.5c-0.8,0-1.5,0.1-2.2,0.4
			c-0.7,0.3-1.2,0.7-1.7,1.2c-0.5,0.5-0.8,1.1-1.1,1.8c-0.3,0.7-0.4,1.4-0.4,2.2c0,0.8,0.1,1.6,0.4,2.3c0.3,0.7,0.6,1.3,1.1,1.8
			c0.5,0.5,1,0.9,1.7,1.1c0.7,0.3,1.4,0.4,2.3,0.4c1.2,0,2.2-0.3,3.1-0.8c0.8-0.5,1.5-1.5,1.9-2.7h-2.6c-0.1,0.3-0.4,0.6-0.8,0.9
			c-0.4,0.3-0.9,0.4-1.5,0.4C197.3,46.2,196.6,46,196.2,45.6 M199.5,40c0.3,0.4,0.6,0.9,0.7,1.7h-4.7c0-0.2,0.1-0.4,0.1-0.7
			c0.1-0.3,0.2-0.5,0.4-0.7c0.2-0.2,0.4-0.4,0.7-0.6c0.3-0.2,0.7-0.2,1.2-0.2C198.6,39.4,199.1,39.6,199.5,40 M189.4,37.5v-3.2h-2.9
			v3.2h-1.8v1.9h1.8v6.3c0,0.5,0.1,1,0.3,1.3c0.2,0.3,0.4,0.6,0.7,0.8c0.3,0.2,0.7,0.3,1.1,0.4c0.4,0.1,0.8,0.1,1.3,0.1
			c0.3,0,0.6,0,0.9,0c0.3,0,0.6,0,0.8-0.1v-2.3c-0.1,0-0.3,0-0.4,0.1c-0.2,0-0.3,0-0.5,0c-0.5,0-0.8-0.1-1-0.2
			c-0.2-0.2-0.2-0.5-0.2-1v-5.2h2.1v-1.9H189.4z M182.8,48.1V37.5h-2.9v5.6c0,1.1-0.2,1.9-0.5,2.3c-0.4,0.5-0.9,0.7-1.7,0.7
			c-0.7,0-1.2-0.2-1.5-0.6c-0.3-0.4-0.4-1.1-0.4-2v-6h-2.9v6.5c0,0.7,0.1,1.3,0.2,1.8c0.1,0.5,0.3,1,0.6,1.4
			c0.3,0.4,0.7,0.7,1.2,0.9c0.5,0.2,1.1,0.3,1.9,0.3c0.6,0,1.2-0.1,1.8-0.4c0.6-0.3,1.1-0.7,1.4-1.3h0.1v1.5H182.8z M169.4,37.5
			v-3.2h-2.9v3.2h-1.8v1.9h1.8v6.3c0,0.5,0.1,1,0.3,1.3c0.2,0.3,0.4,0.6,0.7,0.8c0.3,0.2,0.7,0.3,1.1,0.4c0.4,0.1,0.8,0.1,1.3,0.1
			c0.3,0,0.6,0,0.9,0c0.3,0,0.6,0,0.8-0.1v-2.3c-0.1,0-0.3,0-0.4,0.1c-0.1,0-0.3,0-0.5,0c-0.5,0-0.8-0.1-1-0.2
			c-0.2-0.2-0.2-0.5-0.2-1v-5.2h2.1v-1.9H169.4z M163.2,37.5h-2.9v10.6h2.9V37.5z M160.3,35.9h2.9v-2.4h-2.9V35.9z M156.3,37.5v-3.2
			h-2.9v3.2h-1.8v1.9h1.8v6.3c0,0.5,0.1,1,0.3,1.3c0.2,0.3,0.4,0.6,0.7,0.8c0.3,0.2,0.7,0.3,1.1,0.4c0.4,0.1,0.8,0.1,1.3,0.1
			c0.3,0,0.6,0,0.9,0c0.3,0,0.6,0,0.8-0.1v-2.3c-0.1,0-0.3,0-0.4,0.1c-0.2,0-0.3,0-0.5,0c-0.5,0-0.8-0.1-1-0.2
			c-0.2-0.2-0.2-0.5-0.2-1v-5.2h2.1v-1.9H156.3z M144,45.5c-0.1-0.2-0.2-0.5-0.2-0.8h-2.8c0,0.7,0.2,1.3,0.5,1.8
			c0.3,0.5,0.7,0.9,1.1,1.1c0.5,0.3,1,0.5,1.6,0.6c0.6,0.1,1.2,0.2,1.8,0.2c0.6,0,1.2-0.1,1.8-0.2c0.6-0.1,1.1-0.3,1.5-0.6
			c0.5-0.3,0.8-0.7,1.1-1.1c0.3-0.5,0.4-1.1,0.4-1.8c0-0.5-0.1-0.9-0.3-1.2c-0.2-0.3-0.4-0.6-0.8-0.8c-0.3-0.2-0.7-0.4-1.1-0.5
			c-0.4-0.1-0.8-0.3-1.2-0.3c-0.4-0.1-0.8-0.2-1.2-0.3c-0.4-0.1-0.7-0.2-1.1-0.3c-0.3-0.1-0.6-0.2-0.7-0.4c-0.2-0.2-0.3-0.4-0.3-0.6
			c0-0.2,0.1-0.4,0.2-0.5c0.1-0.1,0.2-0.2,0.4-0.3c0.2-0.1,0.3-0.1,0.5-0.1c0.2,0,0.4,0,0.5,0c0.5,0,1,0.1,1.4,0.3
			c0.4,0.2,0.6,0.6,0.6,1.1h2.8c-0.1-0.7-0.2-1.2-0.5-1.6c-0.3-0.4-0.6-0.8-1.1-1c-0.4-0.3-0.9-0.4-1.4-0.6
			c-0.5-0.1-1.1-0.2-1.7-0.2s-1.1,0.1-1.7,0.2c-0.5,0.1-1,0.3-1.5,0.5c-0.4,0.3-0.8,0.6-1.1,1c-0.3,0.4-0.4,1-0.4,1.7
			c0,0.5,0.1,0.9,0.3,1.2c0.2,0.3,0.4,0.6,0.8,0.8c0.3,0.2,0.7,0.4,1.1,0.5c0.4,0.1,0.8,0.2,1.2,0.3c1,0.2,1.9,0.4,2.4,0.7
			c0.6,0.2,0.9,0.5,0.9,1c0,0.3-0.1,0.5-0.2,0.6c-0.1,0.2-0.3,0.3-0.5,0.4c-0.2,0.1-0.4,0.2-0.6,0.2c-0.2,0.1-0.4,0.1-0.6,0.1
			c-0.3,0-0.6,0-0.8-0.1c-0.3-0.1-0.5-0.2-0.7-0.3C144.3,45.9,144.1,45.7,144,45.5 M129.6,37.5v10.6h2.9v-5.6c0-1.1,0.2-1.9,0.5-2.3
			c0.4-0.5,0.9-0.7,1.7-0.7c0.7,0,1.2,0.2,1.5,0.7c0.3,0.4,0.4,1.1,0.4,2v6h2.9v-6.5c0-0.7-0.1-1.3-0.2-1.8c-0.1-0.5-0.3-1-0.6-1.4
			c-0.3-0.4-0.7-0.7-1.2-0.9c-0.5-0.2-1.1-0.3-1.9-0.3c-0.6,0-1.2,0.1-1.8,0.4c-0.6,0.3-1.1,0.7-1.4,1.3h-0.1v-1.5H129.6z"/>
		<path d="M164.1,1v1.5h0.1c0.4-0.6,0.8-1.1,1.4-1.3c0.6-0.3,1.2-0.4,1.8-0.4c0.8,0,1.4,0.1,1.9,0.3c0.5,0.2,0.9,0.5,1.2,0.9
			c0.3,0.4,0.5,0.8,0.6,1.4c0.1,0.5,0.2,1.1,0.2,1.8v6.5h-2.9v-6c0-0.9-0.1-1.5-0.4-2c-0.3-0.4-0.8-0.6-1.5-0.6
			c-0.8,0-1.4,0.2-1.7,0.7c-0.4,0.5-0.5,1.2-0.5,2.3v5.6h-2.9V1H164.1z M152.7,9c0.4,0.4,1.1,0.6,1.9,0.6c0.6,0,1.1-0.2,1.5-0.4
			c0.4-0.3,0.7-0.6,0.8-0.9h2.6c-0.4,1.3-1,2.2-1.9,2.7c-0.8,0.5-1.9,0.8-3.1,0.8c-0.8,0-1.6-0.1-2.2-0.4c-0.7-0.3-1.2-0.6-1.7-1.1
			c-0.5-0.5-0.8-1.1-1.1-1.8c-0.3-0.7-0.4-1.4-0.4-2.3c0-0.8,0.1-1.5,0.4-2.2c0.3-0.7,0.6-1.3,1.1-1.8c0.5-0.5,1.1-0.9,1.7-1.2
			c0.7-0.3,1.4-0.4,2.2-0.4c0.9,0,1.7,0.2,2.4,0.5c0.7,0.3,1.2,0.8,1.6,1.4c0.4,0.6,0.7,1.3,0.9,2c0.2,0.8,0.3,1.5,0.2,2.4H152
			C152.1,7.9,152.3,8.6,152.7,9 M156,3.5c-0.4-0.4-0.9-0.6-1.6-0.6c-0.5,0-0.9,0.1-1.2,0.2c-0.3,0.2-0.5,0.4-0.7,0.6
			c-0.2,0.2-0.3,0.5-0.4,0.7c-0.1,0.3-0.1,0.5-0.1,0.7h4.7C156.6,4.4,156.4,3.8,156,3.5 M139.7,1v1.3h0c0.4-0.6,0.8-1,1.3-1.2
			c0.5-0.3,1.1-0.4,1.8-0.4c0.8,0,1.5,0.2,2.1,0.5c0.6,0.3,1.1,0.7,1.5,1.3c0.4,0.5,0.7,1.1,0.9,1.8c0.2,0.7,0.3,1.4,0.3,2.2
			c0,0.7-0.1,1.4-0.3,2c-0.2,0.7-0.5,1.2-0.9,1.7c-0.4,0.5-0.9,0.9-1.5,1.2c-0.6,0.3-1.3,0.4-2,0.4c-0.7,0-1.3-0.1-1.8-0.4
			c-0.6-0.3-1-0.7-1.4-1.2h-0.1v5h-2.9V1H139.7z M143.4,9.4c0.3-0.2,0.6-0.4,0.8-0.7c0.2-0.3,0.3-0.7,0.4-1.1
			c0.1-0.4,0.1-0.8,0.1-1.2c0-0.4,0-0.8-0.1-1.3c-0.1-0.4-0.2-0.8-0.4-1.1c-0.2-0.3-0.5-0.6-0.8-0.8c-0.3-0.2-0.7-0.3-1.2-0.3
			c-0.5,0-0.9,0.1-1.2,0.3c-0.3,0.2-0.6,0.5-0.8,0.8c-0.2,0.3-0.3,0.7-0.4,1.1c-0.1,0.4-0.1,0.8-0.1,1.3c0,0.4,0,0.8,0.1,1.2
			c0.1,0.4,0.2,0.8,0.4,1.1c0.2,0.3,0.5,0.6,0.8,0.7c0.3,0.2,0.7,0.3,1.2,0.3C142.7,9.7,143.1,9.6,143.4,9.4 M124.6,4
			c0.3-0.7,0.6-1.3,1.1-1.8c0.5-0.5,1.1-0.9,1.7-1.1c0.7-0.3,1.4-0.4,2.3-0.4c0.8,0,1.6,0.1,2.3,0.4c0.7,0.3,1.2,0.6,1.7,1.1
			c0.5,0.5,0.8,1.1,1.1,1.8c0.3,0.7,0.4,1.5,0.4,2.3c0,0.8-0.1,1.6-0.4,2.3c-0.3,0.7-0.6,1.3-1.1,1.8c-0.5,0.5-1.1,0.9-1.7,1.1
			c-0.7,0.3-1.4,0.4-2.3,0.4c-0.8,0-1.6-0.1-2.3-0.4c-0.7-0.3-1.2-0.6-1.7-1.1c-0.5-0.5-0.8-1.1-1.1-1.8c-0.3-0.7-0.4-1.4-0.4-2.3
			C124.2,5.4,124.4,4.7,124.6,4 M127.3,7.5c0.1,0.4,0.2,0.8,0.4,1.1c0.2,0.3,0.5,0.6,0.8,0.8c0.3,0.2,0.7,0.3,1.2,0.3
			c0.5,0,0.9-0.1,1.2-0.3c0.3-0.2,0.6-0.4,0.8-0.8c0.2-0.3,0.3-0.7,0.4-1.1c0.1-0.4,0.1-0.8,0.1-1.2c0-0.4,0-0.8-0.1-1.3
			c-0.1-0.4-0.2-0.8-0.4-1.1c-0.2-0.3-0.5-0.6-0.8-0.8c-0.3-0.2-0.7-0.3-1.2-0.3c-0.5,0-0.9,0.1-1.2,0.3c-0.3,0.2-0.6,0.5-0.8,0.8
			c-0.2,0.3-0.3,0.7-0.4,1.1c-0.1,0.4-0.1,0.8-0.1,1.3C127.2,6.7,127.2,7.1,127.3,7.5"/>
	</g>
	<path d="M113.2,1.1v47H91.2V32.4c-3,9.7-11.7,15.7-23.1,15.7l-20.6,0V32.5c-3.3,9.3-12.1,16-22.5,16c-13.2,0-23.9-10.7-23.9-23.9
		S11.8,0.7,25,0.7c10.4,0,19.3,6.7,22.5,16V1.1h20.6c11.4,0,20.1,6,23.1,15.7V1.1H113.2z"/>
</g>
</svg>
