<?xml version="1.0" encoding="utf-8"?>
<svg version="1.1" id="Layer_1" xmlns="http://www.w3.org/2000/svg" xmlns:xlink="http://www.w3.org/1999/xlink" x="0px" y="0px" viewBox="0 39.5 800 210" xml:space="preserve">
<path fill="#7C82B6" d="M673.716,242.165h-34.33l-38.621-64.368l-3.678,3.678l-11.034,11.648v49.042h-28.812v-18.391
	c-11.648,9.808-22.682,15.326-32.49,18.391c0,0-0.613,0-1.839,0.613c-3.678,0.613-11.035,2.452-19.004,2.452h-4.291l0,0
	c-18.391-0.613-36.169-7.356-47.203-20.23c-11.035-13.487-17.165-30.651-17.165-51.494s5.517-38.008,17.165-51.494
	c11.647-13.487,26.973-20.23,46.59-20.23c15.939,0,28.812,4.291,38.008,12.874c1.839,1.226,3.065,3.065,4.904,4.904l-16.552,20.843
	c-6.743-7.356-14.1-11.034-25.134-11.034c-10.421,0-19.617,4.291-25.747,12.261c-6.13,7.969-9.195,19.004-9.195,32.49
	s3.065,24.521,9.195,32.49c6.13,7.356,14.713,11.034,23.908,12.261c0,0,2.452,0,4.904,0c1.839,0,3.678,0,4.904,0h0.613
	c10.421-1.226,31.877-7.969,49.042-36.782V46.609h28.812v106.667l45.977-48.429h39.234l-49.655,51.494L673.716,242.165z"/>
<path fill="#7C82B6" d="M421.149,173.506c0-19.617-4.904-36.782-15.326-50.268c-10.421-14.1-25.747-20.843-44.751-20.843
	c-18.391,0-33.716,6.743-45.364,20.843c-11.647,13.487-17.165,30.651-17.165,50.881s5.517,37.395,16.552,50.881
	s28.199,20.23,47.203,20.23l0,0c22.069,0,41.073-9.195,53.333-26.36l-19.004-19.004c-3.065,6.13-9.808,10.421-14.1,12.874
	s-13.487,4.904-20.843,4.904c-9.808,0-18.391-3.065-23.908-9.808c-4.904-6.13-7.969-13.487-9.195-23.295h91.954v-11.034H421.149z
	 M331.034,155.728c1.839-7.969,5.517-14.1,9.808-18.391c5.517-5.517,12.261-7.969,20.23-7.969c7.969,0,14.1,2.452,19.004,7.969
	c4.291,4.904,7.969,11.034,9.808,18.391H331.034z"/>
<path fill="#7C82B6" d="M796.322,126.303l-22.682,22.682c-0.613-1.839-3.065-9.808-11.648-16.552
	c-3.065-2.452-8.582-3.678-14.713-3.678c-8.582,0-15.326,3.678-20.23,12.261c-5.517,8.582-8.582,19.617-8.582,32.49v68.046h-28.812
	V104.234h28.812v10.421c9.808-8.582,22.069-12.874,36.782-12.874c10.421,0,19.617,2.452,26.973,7.969
	C787.739,114.042,792.644,119.559,796.322,126.303z"/>
<path fill="#7C82B6" d="M281.992,148.985v93.18h-28.199V152.05c0-15.326-6.743-22.682-21.456-22.682
	c-8.582,0-15.939,3.678-22.069,11.034c-1.226,1.226-2.452,3.065-3.678,4.904c-2.452,3.678-3.678,7.969-4.904,12.874
	c-0.613,1.839-0.613,3.065-0.613,4.904c0,2.452-0.613,4.904-0.613,7.356v71.111h-28.812v-37.395
	c-0.613,1.226-1.839,1.839-2.452,3.065c-17.778,19.004-38.008,31.264-60.69,35.556c-0.613,0-1.226,0-1.839,0.613
	c-4.904,0.613-9.195,1.226-11.648,1.226h-6.13c-22.069,0-46.59-7.969-61.303-26.973C14.713,200.479,4.904,173.506,4.904,144.08
	s9.808-56.398,22.682-73.563c14.713-18.391,38.008-26.973,60.077-26.973c17.778,0,39.847,6.13,51.494,17.165
	c3.065,3.065,6.13,6.13,8.582,10.421l-19.004,23.908c-12.261-19.617-24.521-22.682-41.073-22.682
	c-11.034,0-27.586,5.517-38.008,19.617c-9.195,12.874-14.1,31.877-14.1,51.494s5.517,38.008,14.1,50.881
	c3.065,3.678,15.326,19.004,41.073,19.004c4.291,0,9.195-0.613,14.713-1.226c33.716-7.969,54.559-39.847,63.755-59.464
	c1.226-1.839,1.839-3.678,2.452-5.517V46.609h28.812v68.659c3.065-2.452,7.356-4.904,11.648-7.356
	c7.969-3.678,16.552-6.13,24.521-6.13c14.713,0,25.747,3.678,33.716,11.648C278.314,121.398,281.992,133.046,281.992,148.985z"/>
</svg>
