<svg width="198" height="50" viewBox="0 0 198 50" fill="none" xmlns="http://www.w3.org/2000/svg">
<path d="M88.7612 23.3462C93.1696 23.3462 95.9281 26.6987 95.9281 31.5822C95.9281 36.4657 92.8924 39.8182 88.7612 39.8182C86.755 39.8182 85.3164 38.9471 84.696 38.3135C84.5772 38.1947 84.4189 38.2475 84.4189 38.4059V45.5464C84.4189 45.6388 84.3529 45.7048 84.2605 45.7048H80.8156C80.7232 45.7048 80.6572 45.6388 80.6572 45.5464V23.8213C80.6572 23.729 80.7232 23.663 80.8156 23.663H83.1386C83.3234 23.663 83.5213 23.6894 83.5873 23.8213L84.3397 24.8904C84.4453 25.0356 84.63 24.996 84.762 24.8244C85.5012 24.0721 87.1642 23.3462 88.7612 23.3462ZM88.1277 26.7911C85.6199 26.7911 84.4057 28.7577 84.4057 31.5822C84.4057 34.7103 85.6199 36.3733 88.1277 36.3733C90.7938 36.3733 92.1665 34.4067 92.1665 31.5822C92.1665 28.7577 90.7938 26.7911 88.1277 26.7911Z" fill="#7C82B6"/>
<path fill-rule="evenodd" clip-rule="evenodd" d="M191.896 41.7717C190.51 45.5465 190.246 45.7181 186.828 45.7181H182.221C182.129 45.7181 182.063 45.6521 182.063 45.5597V42.6164C182.063 42.524 182.089 42.458 182.221 42.458H186.036C188.042 42.458 188.029 41.7585 187.25 39.3563L182.023 23.8347C181.997 23.7423 182.05 23.6763 182.182 23.6763H185.838C185.93 23.6763 185.996 23.7423 186.022 23.8347L189.81 35.9511C189.837 36.1094 190.088 36.1094 190.127 35.9511L193.915 23.8347C193.942 23.7423 194.008 23.6763 194.1 23.6763H197.73C197.848 23.6763 197.914 23.7423 197.888 23.8347L191.896 41.7717Z" fill="#7C82B6"/>
<path d="M68.5936 39.8448C61.981 39.8448 58.6682 35.1461 58.6682 28.5071C58.6682 21.8682 61.9942 17.1694 68.5936 17.1694C75.2061 17.1694 78.519 21.8682 78.519 28.5071C78.519 35.1461 75.2061 39.8448 68.5936 39.8448ZM74.6122 28.5071C74.6122 23.584 72.4872 20.6143 68.5936 20.6143C64.7132 20.6143 62.575 23.584 62.575 28.5071C62.575 33.4302 64.7 36.3999 68.5936 36.3999C72.4872 36.3999 74.6122 33.4302 74.6122 28.5071Z" fill="#7C82B6"/>
<path fill-rule="evenodd" clip-rule="evenodd" d="M96.4429 26.976C96.3505 26.976 96.2845 26.91 96.2845 26.8176V23.8479C96.2845 23.7555 96.3505 23.6895 96.4429 23.6895H99.0167C99.1091 23.6895 99.1751 23.6235 99.1751 23.5311V19.3076C99.1751 19.2152 99.2411 19.1492 99.3334 19.1492H102.778C102.871 19.1492 102.937 19.2152 102.937 19.3076V23.5311C102.937 23.6235 103.003 23.6895 103.095 23.6895H106.289C106.382 23.6895 106.448 23.7555 106.448 23.8479V26.8176C106.448 26.91 106.382 26.976 106.289 26.976H103.082C102.989 26.976 102.923 27.042 102.923 27.1344V35.0932C102.923 35.7135 103.425 36.0963 104.045 36.0963H106.263C106.355 36.0963 106.421 36.1623 106.421 36.2547V39.3828C106.421 39.4752 106.355 39.5412 106.263 39.5412H103.821C100.535 39.5412 99.1487 38.2609 99.1487 35.1196V27.1344C99.1487 27.042 99.0827 26.976 98.9903 26.976H96.4429Z" fill="#7C82B6"/>
<path fill-rule="evenodd" clip-rule="evenodd" d="M108.902 21.2477C108.823 21.2477 108.771 21.1949 108.771 21.1157V17.6181C108.771 17.5389 108.823 17.4861 108.902 17.4861H112.347C112.427 17.4861 112.479 17.5389 112.479 17.6181V21.1157C112.479 21.1949 112.427 21.2477 112.347 21.2477H108.902Z" fill="#7C82B6"/>
<path fill-rule="evenodd" clip-rule="evenodd" d="M108.903 39.5279C108.81 39.5279 108.744 39.4619 108.744 39.3695V23.8347C108.744 23.7423 108.81 23.6763 108.903 23.6763H112.347C112.44 23.6763 112.506 23.7423 112.506 23.8347V39.3695C112.506 39.4619 112.44 39.5279 112.347 39.5279H108.903Z" fill="#7C82B6"/>
<path fill-rule="evenodd" clip-rule="evenodd" d="M133.822 39.5275C133.729 39.5275 133.663 39.4615 133.663 39.3692V30.6976C133.663 28.8234 132.977 26.8172 130.812 26.8172C128.687 26.8172 127.988 28.5066 127.988 30.6976V39.3692C127.988 39.4615 127.922 39.5275 127.829 39.5275H124.385C124.292 39.5275 124.226 39.4615 124.226 39.3692V30.6976C124.226 28.8234 123.54 26.8172 121.375 26.8172C119.25 26.8172 118.551 28.5066 118.551 30.6976V39.3692C118.551 39.4615 118.485 39.5275 118.392 39.5275H114.961C114.868 39.5275 114.802 39.4615 114.802 39.3692V23.8343C114.802 23.7419 114.868 23.6759 114.961 23.6759H117.93C118.115 23.6759 118.181 23.7419 118.247 23.8607L118.564 24.7978C118.63 24.9166 118.749 24.9562 118.841 24.8638C119.501 24.2038 121.19 23.3591 122.629 23.3591C124.477 23.3591 125.889 24.1115 126.707 25.2069C126.773 25.2993 126.892 25.2993 126.958 25.2069C127.829 24.2698 129.123 23.3591 131.129 23.3591C135.075 23.3591 137.425 25.6161 137.425 30.4996V39.3692C137.425 39.4615 137.359 39.5275 137.266 39.5275H133.822Z" fill="#7C82B6"/>
<path fill-rule="evenodd" clip-rule="evenodd" d="M139.893 21.2477C139.814 21.2477 139.761 21.1949 139.761 21.1157V17.6181C139.761 17.5389 139.814 17.4861 139.893 17.4861H143.338C143.417 17.4861 143.47 17.5389 143.47 17.6181V21.1157C143.47 21.1949 143.417 21.2477 143.338 21.2477H139.893Z" fill="#7C82B6"/>
<path fill-rule="evenodd" clip-rule="evenodd" d="M139.88 39.5279C139.787 39.5279 139.721 39.4619 139.721 39.3695V23.8347C139.721 23.7423 139.787 23.6763 139.88 23.6763H143.325C143.417 23.6763 143.483 23.7423 143.483 23.8347V39.3695C143.483 39.4619 143.417 39.5279 143.325 39.5279H139.88Z" fill="#7C82B6"/>
<path fill-rule="evenodd" clip-rule="evenodd" d="M145.991 39.5279C145.898 39.5279 145.832 39.4619 145.832 39.3695V36.3602C145.832 36.2414 145.898 36.1358 145.951 36.083L153.501 27.3719C153.567 27.3059 153.567 27.1211 153.382 27.1211H146.308C146.215 27.1211 146.149 27.0551 146.149 26.9627V23.8347C146.149 23.7423 146.215 23.6763 146.308 23.6763H158.081C158.173 23.6763 158.239 23.7423 158.239 23.8347V26.9363C158.239 27.0287 158.213 27.0551 158.173 27.0947L150.65 35.8323C150.584 35.8983 150.584 36.083 150.769 36.083H158.437C158.53 36.083 158.596 36.149 158.596 36.2414V39.3695C158.596 39.4619 158.53 39.5279 158.437 39.5279H145.991Z" fill="#7C82B6"/>
<path d="M174.249 33.0472H163.347C163.255 33.0472 163.189 33.1132 163.189 33.2056C163.189 34.9346 164.693 36.3997 166.911 36.3997C168.283 36.3997 169.419 36.0565 169.946 34.9874C169.973 34.9214 170.039 34.829 170.197 34.829H173.867C173.959 34.829 174.051 34.895 174.025 34.9874C173.339 38.0231 170.488 39.8445 166.911 39.8445C162.344 39.8445 159.269 36.4921 159.269 31.6085C159.269 26.6854 162.344 23.3726 166.911 23.3726C171.478 23.3726 174.553 26.725 174.553 31.6085C174.526 32.2289 174.487 32.5193 174.394 32.8888C174.368 32.9812 174.342 33.0472 174.249 33.0472ZM170.422 29.9191C170.514 29.9191 170.54 29.8927 170.54 29.8003C170.54 28.5464 169.471 26.8306 166.911 26.8306C164.377 26.8306 163.189 28.586 163.189 29.8003C163.189 29.8927 163.215 29.9191 163.308 29.9191H170.422Z" fill="#7C82B6"/>
<path fill-rule="evenodd" clip-rule="evenodd" d="M176.599 39.5279C176.506 39.5279 176.44 39.4619 176.44 39.3695V17.6445C176.44 17.5521 176.506 17.4861 176.599 17.4861H180.043C180.136 17.4861 180.202 17.5521 180.202 17.6445V39.3827C180.202 39.4751 180.136 39.5411 180.043 39.5411H176.599V39.5279Z" fill="#7C82B6"/>
<path d="M14.1727 24.9018C13.7123 25.1988 13.2773 25.546 12.88 25.9434C11.229 27.5943 10.4691 29.7956 10.5739 31.9575L2.21436 40.3171C1.27096 38.5744 0.628931 36.7007 0.28826 34.7877L13.3154 21.7606C13.124 20.6943 13.0241 19.5962 13.0241 18.4748C13.0241 18.4177 13.0244 18.3607 13.0249 18.3037L0 31.3286C0.0524109 26.664 1.84748 22.0257 5.41143 18.4617C7.78487 16.0883 10.6386 14.5066 13.6495 13.6908C15.7574 5.8065 22.9501 0 31.499 0C41.7023 0 49.9738 8.27147 49.9738 18.4748C49.9738 27.0108 44.1849 34.1946 36.3189 36.3146C35.506 39.3519 33.9211 42.2057 31.5383 44.5886C27.9743 48.1525 23.3228 49.9476 18.6583 50L31.7098 36.9485C31.6396 36.9493 31.5693 36.9497 31.499 36.9497C30.3932 36.9497 29.31 36.8525 28.2577 36.6663L15.2123 49.7117C13.2993 49.3711 11.4256 48.729 9.68291 47.7856L18.0425 39.4261C20.2044 39.544 22.4057 38.771 24.0566 37.12C24.4578 36.7188 24.8079 36.2793 25.1068 35.814C20.0571 33.9518 16.0447 29.9467 14.1727 24.9018ZM31.5645 26.402C35.9425 26.402 39.4916 22.8529 39.4916 18.4748C39.4916 14.0968 35.9425 10.5477 31.5645 10.5477C27.1864 10.5477 23.6373 14.0968 23.6373 18.4748C23.6373 22.8529 27.1864 26.402 31.5645 26.402ZM12.88 37.12C13.5351 37.7621 14.282 38.2862 15.0681 38.6661L7.40304 46.3312C6.69549 45.8071 6.02725 45.2306 5.39832 44.6017C4.76939 43.9596 4.19287 43.2914 3.66876 42.597L11.3339 34.9319C11.7138 35.7311 12.2248 36.4649 12.88 37.12Z" fill="#7C82B6"/>
</svg>
