<svg id="Layer_1" data-name="Layer 1" xmlns="http://www.w3.org/2000/svg" viewBox="0 0 596.6 96.87"><defs><style>.cls-1{fill:#7C82B6;}</style></defs><title>gov_uk_inverted</title><polygon class="cls-1" points="529.73 94.66 546.01 94.66 546.01 70.18 556.4 58.55 577.68 94.66 596.6 94.66 566.85 46.15 594.81 14.14 574.76 14.14 546.01 49.01 546.01 14.14 529.73 14.14 529.73 94.66"/><path class="cls-1" d="M541.1,145.63a14.11,14.11,0,0,1-5.28-3.15,14.79,14.79,0,0,1-3.51-5.33,20.4,20.4,0,0,1-1.29-7.61V79.63H514.9V132a29.5,29.5,0,0,0,2.44,12.18,26.52,26.52,0,0,0,6.82,9.26,31,31,0,0,0,10.38,5.9,42.5,42.5,0,0,0,26.26,0,30.69,30.69,0,0,0,10.35-5.9,26.68,26.68,0,0,0,6.79-9.26A29.49,29.49,0,0,0,580.37,132V79.63h-16v49.92a20.46,20.46,0,0,1-1.29,7.61,14.82,14.82,0,0,1-3.51,5.33,14.17,14.17,0,0,1-5.28,3.15,21.46,21.46,0,0,1-13.19,0" transform="translate(-66.64 -65.6)"/><path class="cls-1" d="M482.25,155.15a10.6,10.6,0,0,0,2.22,3.26,10.27,10.27,0,0,0,7.24,3,10,10,0,0,0,3.93-.79,10.2,10.2,0,0,0,3.26-2.19,10.57,10.57,0,0,0,2.22-3.26,9.83,9.83,0,0,0,.81-4,9.49,9.49,0,0,0-.81-3.9,10.34,10.34,0,0,0-2.22-3.2,10.86,10.86,0,0,0-3.26-2.19,9.66,9.66,0,0,0-3.93-.81,9.84,9.84,0,0,0-4,.81,10.73,10.73,0,0,0-3.29,2.19,10.34,10.34,0,0,0-2.22,3.2,9.48,9.48,0,0,0-.81,3.9,9.81,9.81,0,0,0,.81,4" transform="translate(-66.64 -65.6)"/><polygon class="cls-1" points="389.75 94.66 412.49 14.14 394.47 14.14 379.25 74.67 378.69 74.67 363.14 14.14 344.89 14.14 367.63 94.66 389.75 94.66"/><path class="cls-1" d="M357.58,144.67a19,19,0,0,1-6.77-5.53,24.93,24.93,0,0,1-4.13-8.37,37.69,37.69,0,0,1-1.4-10.56v-.45a37.77,37.77,0,0,1,1.4-10.53,24.92,24.92,0,0,1,4.13-8.39,19,19,0,0,1,6.77-5.53,22.73,22.73,0,0,1,18.61,0,19.39,19.39,0,0,1,6.77,5.53,24.67,24.67,0,0,1,4.15,8.39,37.74,37.74,0,0,1,1.4,10.53v.45a37.66,37.66,0,0,1-1.4,10.56,24.66,24.66,0,0,1-4.15,8.37,19.38,19.38,0,0,1-6.77,5.53,22.71,22.71,0,0,1-18.61,0m-6.82-62.83a35.72,35.72,0,0,0-12.07,8.82,38.38,38.38,0,0,0-7.58,13.14,51.64,51.64,0,0,0,0,32.42,38.72,38.72,0,0,0,7.58,13.14,35.18,35.18,0,0,0,12.07,8.81,42.24,42.24,0,0,0,32.26,0,35.14,35.14,0,0,0,12.1-8.81,38.77,38.77,0,0,0,7.58-13.14,51.69,51.69,0,0,0,0-32.42,38.46,38.46,0,0,0-7.58-13.14A35.67,35.67,0,0,0,383,81.84a41.92,41.92,0,0,0-32.26,0" transform="translate(-66.64 -65.6)"/><path class="cls-1" d="M261.9,119.66a38,38,0,0,1,1.29-9.91,25.59,25.59,0,0,1,3.93-8.45,19.84,19.84,0,0,1,6.74-5.87,20.26,20.26,0,0,1,9.77-2.22,21.44,21.44,0,0,1,6.51.93,18.47,18.47,0,0,1,9.21,6.34,28.28,28.28,0,0,1,3,4.8l14.26-8a30.15,30.15,0,0,0-5.28-7.67,32.61,32.61,0,0,0-7.5-5.89,37.21,37.21,0,0,0-9.38-3.76,43.51,43.51,0,0,0-10.86-1.32,38,38,0,0,0-15.92,3.23,36.32,36.32,0,0,0-12.13,8.82,39.36,39.36,0,0,0-7.75,13.14,47.36,47.36,0,0,0-2.72,16.2,52.22,52.22,0,0,0,2.44,16.23,39.08,39.08,0,0,0,7.13,13.14,33,33,0,0,0,11.54,8.81,36.64,36.64,0,0,0,15.67,3.2,31,31,0,0,0,7.1-.79,28.93,28.93,0,0,0,6.15-2.16,23.56,23.56,0,0,0,5.05-3.31,19.86,19.86,0,0,0,3.76-4.29v9.43h14.26V116.12H281.77v12.41h20.61v.79a20.4,20.4,0,0,1-.87,5.61,15.51,15.51,0,0,1-3,5.65,16.83,16.83,0,0,1-5.78,4.35,20.9,20.9,0,0,1-9.07,1.74,20.25,20.25,0,0,1-9.77-2.22,19.85,19.85,0,0,1-6.74-5.87,25.63,25.63,0,0,1-3.93-8.42,37.84,37.84,0,0,1-1.29-9.94v-.56Z" transform="translate(-66.64 -65.6)"/><path class="cls-1" d="M91.67,96.11a7.06,7.06,0,1,0-3.8-9.17,7.06,7.06,0,0,0,3.8,9.17" transform="translate(-66.64 -65.6)"/><path class="cls-1" d="M75.66,105.49a7.06,7.06,0,1,0-3.8-9.17,7.06,7.06,0,0,0,3.8,9.17" transform="translate(-66.64 -65.6)"/><path class="cls-1" d="M71,123.29a7.06,7.06,0,1,0-3.8-9.17,7.06,7.06,0,0,0,3.8,9.17" transform="translate(-66.64 -65.6)"/><path class="cls-1" d="M109.54,101.75a7.06,7.06,0,1,0-3.8-9.17,7.06,7.06,0,0,0,3.8,9.17" transform="translate(-66.64 -65.6)"/><path class="cls-1" d="M174.27,96.11a7.06,7.06,0,1,1,3.8-9.17,7.07,7.07,0,0,1-3.8,9.17" transform="translate(-66.64 -65.6)"/><path class="cls-1" d="M190.27,105.49a7.06,7.06,0,1,1,3.8-9.17,7.06,7.06,0,0,1-3.8,9.17" transform="translate(-66.64 -65.6)"/><path class="cls-1" d="M195,123.29a7.06,7.06,0,1,1,3.8-9.17,7.06,7.06,0,0,1-3.8,9.17" transform="translate(-66.64 -65.6)"/><path class="cls-1" d="M156.4,101.75a7.06,7.06,0,1,1,3.8-9.17,7.07,7.07,0,0,1-3.8,9.17" transform="translate(-66.64 -65.6)"/><path class="cls-1" d="M136.7,83.5l0,0,8.94,4.69V75l-8.93,2.83,0,0a4.64,4.64,0,0,0-.87-.87l0,0,3.59-11.3H126.5l3.59,11.3,0,0a4.72,4.72,0,0,0-.87.88l0,0L120.25,75V88.17l8.94-4.69,0,0a4.72,4.72,0,0,0,.92.92L125,99.9l0,.06v0h0a8.32,8.32,0,0,0,6.75,10.68l.18,0a7.44,7.44,0,0,0,2.09,0l.18,0A8.33,8.33,0,0,0,140.93,100h0v0a.3.3,0,0,0,0-.06l-5.13-15.48a4.74,4.74,0,0,0,.92-.92" transform="translate(-66.64 -65.6)"/><path class="cls-1" d="M133,159.27a337.37,337.37,0,0,1,47.34,3.2c4.06-17.08,9-26.86,14.11-33.83l-9.61-3.42c1,4.88,1.11,7.15,0,10.29-1.59-1.55-3.09-4.4-4.26-8.76l-4.65,15.51c2.83-2,5-3.21,7.52-3.27-4.43,9.55-10,12-13.56,11.34a6.83,6.83,0,0,1-5.72-8c1-4.7,5.83-5.92,8.08-.46,4.31-8.78-3-11.52-7.7-8.92,7.22-7.2,8-13.6,2.22-21.35-8.12,6.21-8.21,12.35-4.56,21-4.74-5.43-12.12-2.51-9.45,6.25,3.42-5.29,7.94-2,7.23,3.06-.6,4.38-6.38,7.92-13.59,7.29-10.32-.94-10.93-8.06-11.19-14,2.54-.47,7.11,1.88,11,7.35l1.43-16.45a16,16,0,0,1-12.37,5.39c1.42-4.44,8-11.72,8-11.72H122.7s6.54,7.28,8,11.72a16,16,0,0,1-12.37-5.39l1.43,16.45c3.9-5.47,8.47-7.82,11-7.35-.26,5.9-.87,13-11.19,14-7.2.63-13-2.91-13.59-7.29-.71-5,3.82-8.36,7.24-3.06,2.67-8.77-4.71-11.68-9.45-6.25,3.65-8.65,3.56-14.79-4.56-21-5.83,7.74-5,14.14,2.22,21.35-4.7-2.6-12,.14-7.7,8.92,2.25-5.46,7.07-4.24,8.08.46a6.83,6.83,0,0,1-5.72,8c-3.59.66-9.12-1.79-13.56-11.34,2.5.06,4.68,1.32,7.52,3.27l-4.66-15.51c-1.17,4.36-2.67,7.21-4.26,8.76-1.07-3.14-.92-5.41,0-10.29l-9.61,3.42c5.1,7,10,16.75,14.11,33.83A337.68,337.68,0,0,1,133,159.27" transform="translate(-66.64 -65.6)"/></svg>
