<?xml version="1.0" encoding="utf-8"?>
<svg version="1.1" viewBox="0 0 385.846 105.167" xml:space="preserve" xmlns="http://www.w3.org/2000/svg" xmlns:xlink="http://www.w3.org/1999/xlink">
  <g fill="#7C82B6">
    <defs>
      <rect height="234.865" id="SVGID_1_" width="483.427" x="-32.333" y="-64.699"/>
    </defs>
    <path d="M85.628,77.763L58.638,62.95c-1.127-0.62-2.493-0.62-3.62,0L28.027,77.763     l-12.894,20.7l41.695-24.082l41.695,24.082L85.628,77.763z"/>
    <path d="M52.283,3.279L0.664,100.415c-1.455,2.737,1.623,5.651,4.277,4.049     l10.192-5.999l41.695-66.933l41.695,66.933l10.191,5.999c2.654,1.603,5.732-1.312,4.277-4.049L61.372,3.279     C59.437-0.363,54.219-0.363,52.283,3.279"/>
    <path d="M132.929,85.358l26.116-65.246h10.01l26.116,65.246h-10.646l-6.916-18.2     h-27.027l-7.007,18.2H132.929z M164.05,31.577c-0.606,1.942-1.335,4.036-2.184,6.279l-7.917,20.566h20.292l-7.916-20.566     L164.05,31.577z"/>
    <path d="M233.96,68.613l7.37,4.732c-4.489,8.859-11.588,13.287-21.293,13.287     c-6.795,0-12.481-2.276-17.062-6.826c-4.581-4.55-6.87-10.404-6.87-17.563c0-7.099,2.333-12.937,7.006-17.518     c4.67-4.58,10.313-6.87,16.926-6.87c5.034,0,9.357,1.107,12.968,3.321c3.607,2.215,6.232,5.293,7.87,9.236l-7.462,5.005     c-2.911-5.883-7.341-8.826-13.284-8.826c-4.065,0-7.479,1.41-10.237,4.231c-2.762,2.821-4.141,6.629-4.141,11.42     c0,4.794,1.35,8.599,4.05,11.421c2.697,2.82,6.141,4.23,10.328,4.23c3.335,0,6.051-0.772,8.144-2.319     C230.366,74.028,232.261,71.708,233.96,68.613"/>
    <path d="M247.574,68.886V39.129h9.464v27.755c0,3.58,0.894,6.311,2.684,8.189     c1.789,1.882,4.323,2.822,7.599,2.822c3.457,0,6.339-1.288,8.646-3.867c2.304-2.579,3.458-5.871,3.458-9.874V39.129h9.463v46.229     h-9.463v-7.462c-3.217,5.823-8.222,8.735-15.015,8.735c-4.855,0-8.873-1.516-12.059-4.551     C249.167,79.048,247.574,74.651,247.574,68.886"/>
    <path d="M325.319,38.652l-0.066,8.717c-1.421-0.611-3.261-0.894-5.121-0.836     c-3.335,0.105-6.097,1.591-8.281,4.29c-2.184,2.7-3.275,6.112-3.275,10.237v24.297h-9.464V39.13h9.464v7.825     c2.85-6.065,6.724-9.099,12.515-9.099C322.186,37.856,324.023,38.09,325.319,38.652"/>
    <path d="M358.73,50.323c0,1.881,0.955,3.398,2.865,4.55     c1.911,1.153,4.809,2.093,8.691,2.821c5.337,1.092,9.266,2.729,11.784,4.914c2.516,2.183,3.775,5.187,3.775,9.008     c0,4.248-1.607,7.812-4.822,10.693c-3.217,2.883-7.583,4.322-13.104,4.322c-5.157,0-9.462-1.273-12.921-3.821     c-3.458-2.549-5.947-5.824-7.462-9.828l8.326-3.378c2.639,5.953,6.688,8.928,12.147,8.928c2.488,0,4.58-0.605,6.28-1.819     c1.697-1.213,2.547-2.79,2.547-4.731c0-1.88-0.85-3.367-2.547-4.459c-1.7-1.092-4.491-2.002-8.373-2.731     c-10.496-2.122-15.742-6.793-15.742-14.013c0-3.943,1.607-7.082,4.823-9.418c3.214-2.335,7.098-3.504,11.648-3.504     c4.791,0,8.658,0.942,11.603,2.821c2.941,1.881,5.261,4.763,6.96,8.645l-7.484,3.028c-1.049-2.154-2.437-3.846-4.163-5.075     c-2.001-1.425-4.246-2.139-6.733-2.139c-2.245,0-4.157,0.471-5.734,1.411C359.516,47.488,358.73,48.746,358.73,50.323"/>
    <path d="M331.139,39.129h9.464v46.229h-9.464V39.129z M340.625,22.2h-9.485v9.485h9.485     V22.2z"/>
  </g>
</svg>
