<svg version="1.1" id="Layer_1" xmlns="http://www.w3.org/2000/svg" xmlns:xlink="http://www.w3.org/1999/xlink" x="0px" y="0px"
	 viewBox="0 0 526.1 120.4" style="enable-background:new 0 0 526.1 120.4;" xml:space="preserve">
  <g fill="#7C82B6">
		<path class="st0" d="M49.7,92.1c-3-5.2-10.4-20-12.6-25.6c-1.3-2.6-1.7-4.8-1.7-5.6c0-1.7,3.5-2.6,9.1-2.6c3,0,5.6,0.4,8.2,0.9
			c3.5,0.4,6.5,5.6,6.5,8.7c0,1.3,0,2.6-0.4,4.8C57.9,75.6,51.8,87.7,49.7,92.1 M126.1,51.7c-3.9,0.4-8.2,0.4-13.5,0.4
			c-4.3,0-8.7,0-14.3-0.4c-1.7,0.9-1.7,4.8-0.9,5.6l3,0.9c3,0.4,4.3,1.3,4.3,2.2c0,1.3-0.4,3.5-1.3,6.5c-3,7.4-5.6,15.6-10,25.2
			c-3.9-8.2-8.7-18.7-12.2-26.5c-0.9-3-1.3-3.9-1.3-5.2c0-0.9,2.6-1.7,6.5-2.6l2.6-0.4c1.3-0.4,1.3-5.2-0.4-5.6
			c-11.3,0.4-20,0.4-31.3,0.4l-35.6,0.4c-7.4,0-13-0.4-20.4-0.9c-1.7,0.9-1.7,4.8-0.4,6.1l3.5,0.9c2.6,0.4,4.8,1.3,6.9,6.1
			c8.7,16.9,17.4,35.6,26,54.3c0.9,0.9,2.2,1.3,3.9,1.3s3-0.4,3.9-1.3c4.3-8.2,14.8-30,19.1-38.6c5.6,10.4,14.8,30,18.2,38.6
			c1.3,0.9,2.2,0.9,3.9,0.9h0.4c1.7,0,3,0,3.9-0.9C98,101.7,106.2,83.5,114,67c3-6.1,4.3-7.8,10-9.1l2.6-0.4
			C128.2,56,127.8,52.5,126.1,51.7"/>
		<path class="st0" d="M143,69.5c-1.7,0-2.6-0.4-2.6-1.7c0-5.2,6.5-10.4,13.9-10.4c6.1,0,9.6,3,9.6,8.2c0,1.7-0.4,3-1.3,3.5
			c-0.9,0.4-1.7,0.4-2.6,0.4c-1.7,0-3.5-0.4-4.8-0.4h-6.5C146,69,144.3,69.5,143,69.5 M155.6,49.9c-22.1,0-38.2,16.1-38.2,36.5
			c0,18.2,13,33.4,36.5,33.4h0.4c10.4,0,23.4-4.8,30.8-18.7c0-2.6-2.2-3.9-3.9-3.9h-0.9c-4.8,7.8-11.3,8.7-16.5,8.7
			c-16.1,0-24.7-11.7-24.7-24.3c0-2.6,0.4-2.6,4.3-2.6h33.9c5.6-0.4,6.5-2.6,6.5-5.6C183.8,60.8,173.8,49.9,155.6,49.9 M233.3,91.6
			c-3-5.2-10-20-12.6-25.6c-0.9-2.6-1.7-4.3-1.7-5.2c0-2.2,3.5-2.6,9.1-2.6h0.4c3,0,5.6,0,8.2,0.4c3.5,0.9,6.5,6.1,6.5,8.7
			c0,1.3,0,2.6-0.9,4.8C241.5,75.6,235.9,87.3,233.3,91.6 M310.1,51.7c-3.9,0-8.7,0.4-13.5,0.4h-0.9c-4.3,0-8.2-0.4-13.9-0.4
			c-1.7,0.4-1.7,4.3-0.4,5.6l3,0.4c2.6,0.9,4.3,1.7,4.3,2.6s-0.9,3-1.7,6.1c-2.6,7.8-5.6,15.6-10,25.2c-3.9-7.8-8.7-18.7-11.7-26.5
			c-1.3-2.6-1.7-3.5-1.7-4.8c0-0.9,2.6-1.7,6.5-2.6l2.6-0.4c1.3-0.9,1.7-5.6-0.4-5.6c-11.3,0-20,0.4-31.3,0.4h-35.1
			c-7.8,0-13.5,0-20.4-0.4c-1.7,0.9-1.7,4.3-0.4,5.6l3,0.9c3,0.9,4.8,1.3,7.4,6.1c8.2,16.9,16.9,36,25.6,54.3
			c0.9,1.3,2.2,1.3,3.9,1.3s3,0,4.3-1.3c3.9-7.8,14.3-30,19.1-38.2c5.2,10.4,14.3,29.5,18.2,38.2c0.9,1.3,2.2,1.3,3.9,1.3
			s3,0,3.9-1.3c7.4-17.4,15.6-35.2,23.9-52.1c2.6-6.1,3.9-7.8,9.6-8.7l2.6-0.4C311.9,55.6,311.9,52.1,310.1,51.7"/>
		<path class="st0" d="M343.1,112c-10,0-16.1-12.6-16.1-29.5c0-17.8,6.1-25.2,14.3-25.2c10,0,14.8,13.5,14.8,29.5
			C356.6,101.6,353.1,112,343.1,112 M342.3,49.5c-20.8,0-40.8,13-40.4,36.5c0,22.6,18.2,33.9,39.1,33.9h0.4
			c21.7,0,40.4-11.3,40.4-35.6C381.8,61.2,363.1,49.5,342.3,49.5"/>
		<path class="st0" d="M406.1,47.3c-5.6,3-17.8,7.8-25.6,9.6c-1.3,1.3-1.3,3.9,0,5.2l3,1.3c3,2.2,3.9,3.9,3.9,10.4v24.7
			c0,11.7-1.3,13-6.9,13.5l-4.3,0.4c-1.3,0.9-1.3,4.8,0,5.6c6.1-0.4,13.9-0.4,20.8-0.4c8.2,0,15.6,0,23.9,0.4c1.7-0.9,1.7-4.8,0-5.6
			l-5.2-0.4c-6.1-0.4-6.9-1.7-6.9-13.5V73.3c0-6.1,0.9-9.6,3.5-10c0.9,0,2.6,0.4,6.5,3.5c2.6,2.2,4.8,3,6.9,3
			c5.6,0,11.3-3,11.3-10.9c0-6.1-4.8-9.6-9.6-9.6c-7.4,0-12.6,5.2-17.4,8.2c-1.3-0.4-1.7-0.9-1.7-2.2s0.4-3.5,0.9-6.9
			C408.3,47.8,407.4,47.3,406.1,47.3"/>
		<path class="st0" d="M460.4,0c-9.1,3.9-20,7.8-26.9,9.6c-1.3,0.9-1.3,3.9,0,4.8l3,1.7c3.5,1.7,3.5,3.5,3.5,10v72
			c0,11.7-0.9,13-6.9,13.5l-3.5,0.4c-1.3,0.9-1.3,4.8,0.4,5.6c6.1-0.4,13-0.4,21.3-0.4s15.6,0,21.3,0.4c1.7-0.9,1.3-4.8,0-5.6
			l-2.6-0.4c-6.5-0.4-6.9-1.7-6.9-13.5v-9.6c0-3,0.9-3.9,2.2-3.9c1.7,0,3,0.9,4.3,2.6l12.6,17.8c1.3,1.7,3,4.3,3,5.2
			c0,0.4-1.3,0.9-3,1.3l-2.2,0.4c-1.3,1.3-1.3,4.8,0.4,5.6c5.2-0.4,11.3-0.4,21.7-0.4c10.4,0,16.9,0,22.6,0.4
			c1.7-0.9,1.7-4.8,0.4-5.6l-2.6-0.4c-4.8-0.9-7.8-1.7-10.4-3.9c-4.3-3.9-20-26-23-31.3c-0.9-1.3-1.3-2.2-1.3-2.6s0-1.3,0.9-2.2
			c2.6-2.6,5.2-4.8,12.2-9.6c4.3-3.5,8.2-5.2,11.7-5.6l5.6-1.3c1.3-1.3,0.9-4.8-0.9-5.6c-10.4,1.3-25.2,2.2-33.4,2.2H480
			c-1.7,0.9-2.2,4.3-0.4,5.6l4.3,0.9c1.7,0,3.5,0.9,3.5,1.7s-0.9,2.6-4.3,6.5l-7.4,7.8c-3.5,3.9-7.4,4.8-10.4,4.8
			c-1.7,0-2.2-0.4-2.2-2.6V25.1c0-10.4,0-17.4,0.4-23.9C462.5,0.4,461.2,0,460.4,0"/>
	</g>
</svg>
