<svg xmlns="http://www.w3.org/2000/svg" width="400" height="77" viewBox="0 0 400 77">
    <path fill="#7C82B6" fill-rule="evenodd" d="M77.22 33.995v36.206c0 3.755-3.05 6.799-6.819 6.799H6.82C3.053 77 0 73.958 0 70.2V6.8C0 3.043 3.05 0 6.819 0H70.4c3.766 0 6.82 3.042 6.82 6.8v7.006l-10.812 4.906V11.55H11.583v54.67h54.826V40.053L40.154 51.59V40.329L16.216 50.846v-3.65l35.521-22.7v9.384L77.22 22.33v11.665zm66.41.655v28.108c-6.99 3.636-14.818 5.151-22.718 5.151-16.79 0-29.02-10.984-29.02-28.18 0-17.195 12.23-28.179 29.02-28.179 8.508 0 16.029 1.894 21.423 6.893l-8.357 9.09c-3.19-3.332-7.065-5.075-13.066-5.075-10.104 0-16.713 7.272-16.713 17.272 0 9.999 6.609 17.27 16.713 17.27 5.166 0 8.964-1.438 11.167-2.65v-8.92h-9.3V34.65h20.85zm8.494 31.57V30.03h11.583v36.19h-11.583zm-.773-48.08c0-3.636 2.963-6.59 6.61-6.59 3.646 0 6.609 2.954 6.609 6.59 0 3.636-2.963 6.59-6.61 6.59-3.646 0-6.609-2.954-6.609-6.59zm45.56 11.89v9.24h-9.266v11.55c0 3.94.119 7.09 5.057 7.09 1.215 0 3.994-.25 4.981-1.159v9.469c-2.507.909-5.665 1.235-8.324 1.235-7.597 0-13.446-3.215-13.297-11.245V39.27h-6.95v-9.24h6.95V18.48h11.583v11.55h9.266zm6.95 36.19V13.09h20.671c11.167 0 19.483 5.39 19.483 16.17 0 10.78-7.213 16.17-18.532 16.17h-9.267v20.79h-12.355zm12.355-43.89v13.09h7.722c4.178 0 8.494-.77 8.494-6.16 0-6.16-5.48-6.93-10.038-6.93h-6.178zm31.66 43.89V30.03h11.583v5.609h.094c2.43-4.47 5.703-6.764 10.717-6.764 1.292 0 2.798.082 3.861.385v10.395c-1.595-.455-3.335-.834-5.006-.834-8.66 0-9.724 5-9.666 12.347V66.22h-11.583zm31.66 0V30.03h11.584v36.19h-11.583zm-.599-48.08c0-3.636 2.963-6.59 6.61-6.59 3.646 0 6.608 2.954 6.608 6.59 0 3.636-2.962 6.59-6.609 6.59-3.646 0-6.609-2.954-6.609-6.59zm19.905 48.08V30.03h10.81v4.62c1.52-2.879 5.266-5.775 10.811-5.775 5.166 0 9.608 2.076 11.583 6.545 2.66-4.697 6.114-6.599 11.583-6.545 10.028-.054 13.087 6.846 13.128 15.785v21.56h-11.583V45.045c0-3.409-1.145-6.224-4.867-6.224-5.242 0-6.716 3.604-6.716 8.149v19.25h-11.593V47.077c0-2.727.152-8.256-5.09-8.256-5.925 0-6.483 4.532-6.483 9.304V66.22h-11.583zm91.505-11.935l7.723 6.16c-3.647 4.62-9.465 6.93-15.39 6.93-11.396 0-20.512-7.496-20.512-19.237 0-11.741 9.116-19.263 20.457-19.263 10.69 0 17.375 7.522 17.375 19.25v3.465h-26.64c.91 4.318 4.381 7.229 8.787 7.229 3.723 0 6.301-1.958 8.2-4.534zM373.36 43.89h15.444c.076-3.706-3.234-6.93-7.336-6.93-5.014 0-7.804 3.451-8.108 6.93z"/>
</svg>
