<?xml version="1.0" encoding="UTF-8"?>
<svg viewBox="0 0 170 191" version="1.1" xmlns="http://www.w3.org/2000/svg" xmlns:xlink="http://www.w3.org/1999/xlink">
    <!-- Generator: Sketch 43.2 (39069) - http://www.bohemiancoding.com/sketch -->
    <title>dependabot logo square</title>
    <desc>Created with Sketch.</desc>
    <defs></defs>
    <g id="Assets" stroke="none" stroke-width="1" fill="none" fill-rule="evenodd">
        <g id="hardback-cover" transform="translate(-61.000000, -205.000000)">
            <g id="dependabot-logo-square" transform="translate(61.000000, 205.000000)">
                <g id="Group-22">
                    <path d="M78.8386372,1.65808262 C82.3772914,-0.362220624 88.1065981,-0.366779726 91.6532378,1.65808262 L164.084575,43.0108835 C167.623229,45.0311867 170.491875,49.9633486 170.491875,54.0450162 L170.491875,136.630848 C170.491875,140.704528 167.631214,145.640119 164.084575,147.664981 L91.6532378,189.017782 C88.1145836,191.038085 82.3852769,191.042644 78.8386372,189.017782 L6.40730033,147.664981 C2.86864607,145.644678 4.4408921e-14,140.712516 4.08562073e-14,136.630848 L-3.55271368e-15,54.0450162 C-7.10542736e-15,49.9713362 2.86066059,45.0357458 6.40730033,43.0108835 L78.8386372,1.65808262 Z" id="Polygon-2" fill="#0025FF"></path>
                    <g id="Group-20-Copy" transform="translate(32.998669, 43.045593)">
                        <rect id="Combined-Shape" fill="#FFFFFF" x="6.73828682" y="27.2644377" width="92.0899199" height="68.1610942"></rect>
                        <polygon id="Combined-Shape" fill="#0025FF" points="31.4453385 61.3449848 26.9531473 56.8009119 22.4609561 61.3449848 31.4453385 70.4331307 44.9219122 56.8009119 40.4297209 52.2568389"></polygon>
                        <polygon id="Combined-Shape-Copy-2" fill="#0025FF" points="69.6289638 61.3449848 65.1367726 56.8009119 60.6445814 61.3449848 69.6289638 70.4331307 83.1055375 56.8009119 78.6133463 52.2568389"></polygon>
                        <rect id="Rectangle-15-Copy" fill="#FFFFFF" x="42.6758166" y="0" width="20.2148605" height="20.4483283"></rect>
                        <rect id="Rectangle-15-Copy-4" fill="#FFFFFF" x="56.1523902" y="13.6322188" width="6.73828682" height="20.305333"></rect>
                        <rect id="Rectangle-15-Copy-2" fill="#FFFFFF" x="0" y="59.0729483" width="13.5072446" height="20.4483283"></rect>
                        <rect id="Rectangle-15-Copy-3" fill="#FFFFFF" x="92.059249" y="59.0729483" width="13.5072446" height="20.4483283"></rect>
                    </g>
                </g>
            </g>
        </g>
    </g>
</svg>
