<?xml version="1.0" encoding="UTF-8"?>
<svg width="32px" height="32px" viewBox="0 0 32 32" version="1.1" xmlns="http://www.w3.org/2000/svg" xmlns:xlink="http://www.w3.org/1999/xlink">
    <!-- Generator: Sketch 46.2 (44496) - http://www.bohemiancoding.com/sketch -->
    <title>Combined Shape</title>
    <desc>Created with Sketch.</desc>
    <defs></defs>
    <g id="Landing-pages" stroke="none" stroke-width="1" fill="none" fill-rule="evenodd">
        <g id="dependabot-update" transform="translate(-310.000000, -1765.000000)" fill="#0025FF">
            <path d="M333.333333,1779.66667 C338.112,1779.66667 342,1783.554 342,1788.33333 C342,1793.11267 338.112,1797 333.333333,1797 C328.554667,1797 324.666667,1793.11267 324.666667,1788.33333 C324.666667,1783.554 328.554667,1779.66667 333.333333,1779.66667 Z M333.333333,1795.66667 C337.376667,1795.66667 340.666667,1792.37667 340.666667,1788.33333 C340.666667,1784.29 337.376667,1781 333.333333,1781 C329.29,1781 326,1784.29 326,1788.33333 C326,1792.37667 329.29,1795.66667 333.333333,1795.66667 Z M336.841133,1785.88413 C337.089133,1785.61147 337.511133,1785.5928 337.782467,1785.8408 C338.054467,1786.0888 338.074467,1786.5108 337.8258,1786.7828 L332.688467,1792.4128 L328.8618,1788.58613 C328.6018,1788.32547 328.6018,1787.90347 328.8618,1787.64347 C329.122467,1787.3828 329.544467,1787.3828 329.804467,1787.64347 L332.644467,1790.4828 L336.841133,1785.88413 Z M323.333333,1781 C323.702,1781 324,1781.29867 324,1781.66667 C324,1782.03467 323.702,1782.33333 323.333333,1782.33333 C317.98,1782.33333 313.470667,1780.97867 311.333333,1778.976 L311.333333,1782.33333 C311.333333,1784.538 315.745333,1786.55933 321.377333,1786.93533 C321.745333,1786.96 322.022667,1787.278 321.998667,1787.64467 C321.975333,1787.99733 321.682,1788.26733 321.334,1788.26733 C321.319333,1788.26733 321.304,1788.26667 321.289333,1788.26533 C316.760667,1787.96333 313.166667,1786.734 311.333333,1785.01733 L311.333333,1788.33333 C311.333333,1790.33733 315.422667,1792.68 322.029333,1792.972 C322.397333,1792.988 322.682,1793.29933 322.666,1793.66733 C322.650667,1794.02467 322.355333,1794.304 322.000667,1794.304 L321.970667,1794.304 C315.034667,1793.998 310,1791.48667 310,1788.33333 L310,1771 C310,1767.63533 315.856667,1765 323.333333,1765 C330.81,1765 336.666667,1767.63533 336.666667,1771 L336.666667,1777 C336.666667,1777.368 336.368667,1777.66667 336,1777.66667 C335.631333,1777.66667 335.333333,1777.368 335.333333,1777 L335.333333,1773.64267 C333.196,1775.64533 328.686667,1777 323.333333,1777 C317.98,1777 313.470667,1775.64533 311.333333,1773.64267 L311.333333,1776.33333 C311.333333,1779.08333 317.657333,1781 323.333333,1781 Z M323.333333,1766.33333 C317.657333,1766.33333 311.333333,1768.25 311.333333,1771 C311.333333,1773.75 317.657333,1775.66667 323.333333,1775.66667 C329.009333,1775.66667 335.333333,1773.75 335.333333,1771 C335.333333,1768.25 329.009333,1766.33333 323.333333,1766.33333 Z" id="Combined-Shape"></path>
        </g>
    </g>
</svg>