<?xml version="1.0" encoding="UTF-8"?>
<svg width="32px" height="32px" viewBox="0 0 32 32" version="1.1" xmlns="http://www.w3.org/2000/svg" xmlns:xlink="http://www.w3.org/1999/xlink">
    <!-- Generator: Sketch 46.2 (44496) - http://www.bohemiancoding.com/sketch -->
    <title>Page 1</title>
    <desc>Created with Sketch.</desc>
    <defs></defs>
    <g id="Landing-pages" stroke="none" stroke-width="1" fill="none" fill-rule="evenodd">
        <g id="dependabot-update" transform="translate(-310.000000, -1973.000000)" fill="#0025FF">
            <g id="Group-13" transform="translate(310.000000, 1973.000000)">
                <g id="Page-1">
                    <path d="M31.8046667,30.862 C32.0653333,31.122 32.0653333,31.5446667 31.8046667,31.8046667 C31.6746667,31.9346667 31.504,32 31.3333333,32 C31.1626667,32 30.992,31.9346667 30.862,31.8046667 L25.7406667,26.6833333 C24.714,27.5053333 23.4146667,28 22,28 C18.692,28 16,25.308 16,22 C16,18.692 18.692,16 22,16 C25.308,16 28,18.692 28,22 C28,23.4146667 27.5053333,24.7133333 26.6833333,25.7406667 L31.8046667,30.862 Z M17.3333333,22 C17.3333333,24.5733333 19.4266667,26.6666667 22,26.6666667 C24.5733333,26.6666667 26.6666667,24.5733333 26.6666667,22 C26.6666667,19.4266667 24.5733333,17.3333333 22,17.3333333 C19.4266667,17.3333333 17.3333333,19.4266667 17.3333333,22 Z M24.6666667,21.3333333 C25.0346667,21.3333333 25.3333333,21.632 25.3333333,22 C25.3333333,22.368 25.0346667,22.6666667 24.6666667,22.6666667 L22.6666667,22.6666667 L22.6666667,24.6666667 C22.6666667,25.0346667 22.368,25.3333333 22,25.3333333 C21.632,25.3333333 21.3333333,25.0346667 21.3333333,24.6666667 L21.3333333,22.6666667 L19.3333333,22.6666667 C18.9653333,22.6666667 18.6666667,22.368 18.6666667,22 C18.6666667,21.632 18.9653333,21.3333333 19.3333333,21.3333333 L21.3333333,21.3333333 L21.3333333,19.3333333 C21.3333333,18.9653333 21.632,18.6666667 22,18.6666667 C22.368,18.6666667 22.6666667,18.9653333 22.6666667,19.3333333 L22.6666667,21.3333333 L24.6666667,21.3333333 Z M0.666666667,8 C0.298666667,8 1.57772181e-30,7.70133333 1.57772181e-30,7.33333333 L1.57772181e-30,4.66666667 C1.57772181e-30,4.29866667 0.298666667,4 0.666666667,4 C1.03466667,4 1.33333333,4.29866667 1.33333333,4.66666667 L1.33333333,7.33333333 C1.33333333,7.70133333 1.03466667,8 0.666666667,8 Z M0.666666667,13.3333333 C0.298666667,13.3333333 1.57772181e-30,13.0346667 1.57772181e-30,12.6666667 L1.57772181e-30,10 C1.57772181e-30,9.632 0.298666667,9.33333333 0.666666667,9.33333333 C1.03466667,9.33333333 1.33333333,9.632 1.33333333,10 L1.33333333,12.6666667 C1.33333333,13.0346667 1.03466667,13.3333333 0.666666667,13.3333333 Z M0.666666667,18.6666667 C0.298666667,18.6666667 1.57772181e-30,18.368 1.57772181e-30,18 L1.57772181e-30,15.3333333 C1.57772181e-30,14.9653333 0.298666667,14.6666667 0.666666667,14.6666667 C1.03466667,14.6666667 1.33333333,14.9653333 1.33333333,15.3333333 L1.33333333,18 C1.33333333,18.368 1.03466667,18.6666667 0.666666667,18.6666667 Z M22.6666667,4.66666667 L22.6666667,7.33333333 C22.6666667,7.70133333 22.368,8 22,8 C21.632,8 21.3333333,7.70133333 21.3333333,7.33333333 L21.3333333,4.66666667 C21.3333333,4.29866667 21.632,4 22,4 C22.368,4 22.6666667,4.29866667 22.6666667,4.66666667 Z M22,9.33333333 C22.368,9.33333333 22.6666667,9.632 22.6666667,10 L22.6666667,12.6666667 C22.6666667,13.0346667 22.368,13.3333333 22,13.3333333 C21.632,13.3333333 21.3333333,13.0346667 21.3333333,12.6666667 L21.3333333,10 C21.3333333,9.632 21.632,9.33333333 22,9.33333333 Z M2,21.3333333 C2.368,21.3333333 2.66666667,21.632 2.66666667,22 C2.66666667,22.368 2.368,22.6666667 2,22.6666667 L0.666666667,22.6666667 C0.298666667,22.6666667 1.57772181e-30,22.368 1.57772181e-30,22 L1.57772181e-30,20.6666667 C1.57772181e-30,20.2986667 0.298666667,20 0.666666667,20 C1.03466667,20 1.33333333,20.2986667 1.33333333,20.6666667 L1.33333333,21.3333333 L2,21.3333333 Z M2,0 C2.368,0 2.66666667,0.298666667 2.66666667,0.666666667 C2.66666667,1.03466667 2.368,1.33333333 2,1.33333333 L1.33333333,1.33333333 L1.33333333,2 C1.33333333,2.368 1.03466667,2.66666667 0.666666667,2.66666667 C0.298666667,2.66666667 1.57772181e-30,2.368 1.57772181e-30,2 L1.57772181e-30,0.666666667 C1.57772181e-30,0.298666667 0.298666667,0 0.666666667,0 L2,0 Z M7.33333333,0 C7.70133333,0 8,0.298666667 8,0.666666667 C8,1.03466667 7.70133333,1.33333333 7.33333333,1.33333333 L4.66666667,1.33333333 C4.29866667,1.33333333 4,1.03466667 4,0.666666667 C4,0.298666667 4.29866667,0 4.66666667,0 L7.33333333,0 Z M12.6666667,0 C13.0346667,0 13.3333333,0.298666667 13.3333333,0.666666667 C13.3333333,1.03466667 13.0346667,1.33333333 12.6666667,1.33333333 L10,1.33333333 C9.632,1.33333333 9.33333333,1.03466667 9.33333333,0.666666667 C9.33333333,0.298666667 9.632,0 10,0 L12.6666667,0 Z M7.33333333,21.3333333 C7.70133333,21.3333333 8,21.632 8,22 C8,22.368 7.70133333,22.6666667 7.33333333,22.6666667 L4.66666667,22.6666667 C4.29866667,22.6666667 4,22.368 4,22 C4,21.632 4.29866667,21.3333333 4.66666667,21.3333333 L7.33333333,21.3333333 Z M12.6666667,21.3333333 C13.0346667,21.3333333 13.3333333,21.632 13.3333333,22 C13.3333333,22.368 13.0346667,22.6666667 12.6666667,22.6666667 L10,22.6666667 C9.632,22.6666667 9.33333333,22.368 9.33333333,22 C9.33333333,21.632 9.632,21.3333333 10,21.3333333 L12.6666667,21.3333333 Z M18.6666667,0.666666667 C18.6666667,1.03466667 18.368,1.33333333 18,1.33333333 L15.3333333,1.33333333 C14.9653333,1.33333333 14.6666667,1.03466667 14.6666667,0.666666667 C14.6666667,0.298666667 14.9653333,0 15.3333333,0 L18,0 C18.368,0 18.6666667,0.298666667 18.6666667,0.666666667 Z M20.6666667,1.33333333 C20.2986667,1.33333333 20,1.03466667 20,0.666666667 C20,0.298666667 20.2986667,0 20.6666667,0 L22,0 C22.368,0 22.6666667,0.298666667 22.6666667,0.666666667 L22.6666667,2 C22.6666667,2.368 22.368,2.66666667 22,2.66666667 C21.632,2.66666667 21.3333333,2.368 21.3333333,2 L21.3333333,1.33333333 L20.6666667,1.33333333 Z" id="Combined-Shape"></path>
                </g>
            </g>
        </g>
    </g>
</svg>