<svg xmlns="http://www.w3.org/2000/svg" width="16px" height="16px" fill="#bb0000" viewBox="0 0 18 16">
      <path
        d="M17.4662376,5.66013187 L0.357326733,5.66013187 C0.218673267,5.66013187 0.0926732673,5.58083516 0.0342178218,5.4567033 C-0.0242376238,5.33257143 -0.00445544554,5.18628571 0.0848316832,5.08184615 L4.18811881,0.28043956 C4.25584158,0.201142857 4.35546535,0.155428571 4.46061386,0.155428571 L13.3638416,0.155428571 C13.4689901,0.155428571 13.5686139,0.201142857 13.6363366,0.28043956 L17.7387327,5.08184615 C17.8280198,5.18646154 17.847802,5.33274725 17.7893465,5.4567033 C17.7308911,5.58065934 17.6048911,5.66013187 17.4662376,5.66013187 Z M1.12419802,4.95683516 L16.6997228,4.95683516 L13.1982772,0.858725275 L4.62635644,0.858725275 L1.12419802,4.95683516 Z"
        id="Shape"
      />
      <polygon
        id="Shape"
        points="8.91178218 15.8767473 0.0846534653 5.53494505 0.63 5.08202198 8.91178218 14.7847033 17.1935644 5.08202198 17.7389109 5.53494505"
      />
      <path
        d="M8.91178218,15.6822857 L8.91178218,15.6822857 C8.76047525,15.6822857 8.62592079,15.5882198 8.57566337,15.4475604 L4.99419802,5.42540659 C4.95481188,5.31551648 4.97334653,5.19384615 5.04320792,5.09995604 L8.62467327,0.298549451 C8.75869307,0.118505495 9.06433663,0.118505495 9.19871287,0.298549451 L12.7808911,5.09995604 C12.8509307,5.19367033 12.8692871,5.31551648 12.829901,5.42540659 L9.24772277,15.4475604 C9.19764356,15.5882198 9.06308911,15.6822857 8.91178218,15.6822857 Z M5.72916832,5.36703297 L8.91160396,14.2732308 L12.0947525,5.36703297 L8.91178218,1.10030769 L5.72916832,5.36703297 Z"
        id="Shape"
      />
      <rect
        id="Rectangle-path"
        transform="translate(4.748388, 2.934882) rotate(79.868882) translate(-4.748388, -2.934882) "
        x="2.27532905"
        y="2.4348752"
        width="4.94372325"
        height="1"
      />
      <rect
        id="Rectangle-path"
        transform="translate(13.070541, 2.932413) rotate(10.136758) translate(-13.070541, -2.932413) "
        x="12.5705406"
        y="0.493791089"
        width="1"
        height="4.87758568"
      />
    </svg>
