<svg viewBox="0 0 100 100" xmlns="http://www.w3.org/2000/svg">
  <defs>
    <style>.cls-1{fill:#5382a1;}.cls-2{fill:#f8981d;}</style>
  </defs>
  <title>logo-java</title>
  <path class="cls-1" d="M31.25,77.34s-3.82,2.22,2.72,3c7.92.9,12,.77,20.71-.88a36,36,0,0,0,5.5,2.69c-19.58,8.39-44.3-.49-28.93-4.78"/>
  <path class="cls-1" d="M28.86,66.39s-4.29,3.17,2.26,3.85c8.46.87,15.15.94,26.72-1.28A11.86,11.86,0,0,0,62,71.46c-23.67,6.92-50,.55-33.09-5.08"/>
  <path class="cls-2" d="M49,47.81c4.82,5.55-1.27,10.55-1.27,10.55S60,52,54.38,44.13c-5.25-7.38-9.28-11.05,12.53-23.7,0,0-34.23,8.55-17.88,27.39"/>
  <path class="cls-1" d="M74.92,85.43s2.83,2.33-3.11,4.13c-11.3,3.42-47,4.46-57,.14C11.28,88.15,18,86,20.08,85.54a13.57,13.57,0,0,1,3.45-.39c-4-2.8-25.65,5.49-11,7.86,39.91,6.47,72.76-2.91,62.41-7.58"/>
  <path class="cls-1" d="M33.09,55s-18.17,4.32-6.44,5.88c5,.66,14.84.51,24-.26,7.52-.63,15.07-2,15.07-2a31.91,31.91,0,0,0-4.57,2.45C42.74,66,7.09,63.73,17.35,58.76A34.39,34.39,0,0,1,33.09,55"/>
  <path class="cls-1" d="M65.69,73.27c18.76-9.75,10.09-19.12,4-17.86a14,14,0,0,0-2.15.58,3.42,3.42,0,0,1,1.6-1.24c12-4.21,21.19,12.42-3.87,19a1.63,1.63,0,0,0,.38-.49"/>
  <path class="cls-2" d="M54.38,0s10.39,10.39-9.85,26.38c-16.23,12.82-3.7,20.13,0,28.48C35,46.31,28.09,38.78,32.76,31.78,39.6,21.5,58.57,16.51,54.38,0"/>
  <path class="cls-1" d="M34.93,99.69c18,1.15,45.66-.64,46.32-9.16,0,0-1.26,3.23-14.88,5.8C51,99.21,32,98.88,20.8,97c0,0,2.3,1.91,14.14,2.66"/>
</svg>
