<?xml version="1.0" encoding="UTF-8"?>
<svg width="80px" height="90px" viewBox="0 0 80 90" version="1.1" xmlns="http://www.w3.org/2000/svg" xmlns:xlink="http://www.w3.org/1999/xlink">
    <!-- Generator: Sketch 43.2 (39069) - http://www.bohemiancoding.com/sketch -->
    <title>Group 11</title>
    <desc>Created with Sketch.</desc>
    <defs></defs>
    <g id="Landing-pages" stroke="none" stroke-width="1" fill="none" fill-rule="evenodd">
        <g id="Desktop-HD" transform="translate(-360.000000, -950.000000)" fill="#0025FF">
            <g id="how-it-works" transform="translate(0.000000, 800.000000)">
                <g id="Group-8" transform="translate(250.000000, 121.000000)">
                    <g id="Group-10">
                        <g id="Group-11" transform="translate(110.000000, 28.000000)">
                            <path d="M35.6622409,2.434005 C38.0579191,1.06291834 41.942801,1.06333049 44.3377591,2.434005 L75.6622409,20.3615294 C78.0579191,21.7326161 80,25.0834174 80,27.8529796 L80,63.62056 C80,66.386887 78.057199,69.7413357 75.6622409,71.1120102 L44.3377591,89.0395346 C41.9420809,90.4106213 38.057199,90.4102091 35.6622409,89.0395346 L4.33775906,71.1120102 C1.94208088,69.7409235 2.7533531e-14,66.3901222 2.57571742e-14,63.62056 L5.32907052e-15,27.8529796 C3.55271368e-15,25.0866526 1.94280102,21.7322039 4.33775906,20.3615294 L35.6622409,2.434005 Z" id="Polygon-2" opacity="0.0399999991"></path>
                            <path d="M61.899,50.6975 C63.215,52.5105 64,54.7305 64,57.1365 C64,63.2015 59.065,68.1365 53,68.1365 C46.935,68.1365 42,63.2015 42,57.1365 L42,39.2755 C41.371,39.1875 40.702,39.1365 40,39.1365 C39.298,39.1365 38.629,39.1875 38,39.2755 L38,57.1365 C38,63.2015 33.065,68.1365 27,68.1365 C20.935,68.1365 16,63.2015 16,57.1365 C16,54.7305 16.785,52.5105 18.1,50.6975 L24.081,36.7425 C24.131,36.6255 24.203,36.5195 24.293,36.4295 L27.14,33.5825 L30.063,25.7855 C30.114,25.6515 30.192,25.5305 30.293,25.4295 C32.198,23.5235 35.802,23.5235 37.707,25.4295 C37.894,25.6165 38,25.8715 38,26.1365 L38,34.1365 C38,34.6885 37.552,35.1365 37,35.1365 C36.448,35.1365 36,34.6885 36,34.1365 L36,26.5955 C34.86,25.7755 32.918,25.8145 31.853,26.7095 L28.936,34.4875 C28.886,34.6215 28.808,34.7425 28.707,34.8435 L25.843,37.7075 L21.625,47.5485 C23.216,46.6535 25.048,46.1365 27,46.1365 C30.72,46.1365 34.008,47.9975 36,50.8315 L36,39.7215 C34.16,40.3095 33,41.2555 33,42.1365 C33,42.6885 32.552,43.1365 32,43.1365 C31.448,43.1365 31,42.6885 31,42.1365 C31,39.2855 34.869,37.1365 40,37.1365 C45.131,37.1365 49,39.2855 49,42.1365 C49,42.6885 48.552,43.1365 48,43.1365 C47.448,43.1365 47,42.6885 47,42.1365 C47,41.2555 45.84,40.3095 44,39.7215 L44,50.8315 C45.992,47.9975 49.28,46.1365 53,46.1365 C54.952,46.1365 56.783,46.6535 58.374,47.5485 L54.157,37.7075 L51.293,34.8435 C51.193,34.7435 51.116,34.6245 51.065,34.4925 L48.149,26.8365 C47.085,25.9395 45.141,25.9005 44,26.7205 L44,34.1365 C44,34.6885 43.552,35.1365 43,35.1365 C42.448,35.1365 42,34.6885 42,34.1365 L42,26.2615 C42,25.9965 42.105,25.7415 42.293,25.5545 C44.198,23.6485 47.802,23.6485 49.707,25.5545 C49.807,25.6545 49.884,25.7735 49.935,25.9055 L52.858,33.5805 L55.707,36.4295 C55.797,36.5195 55.869,36.6255 55.919,36.7425 L61.899,50.6975 Z M27,66.1365 C31.962,66.1365 36,62.0985 36,57.1365 C36,52.1745 31.962,48.1365 27,48.1365 C22.038,48.1365 18,52.1745 18,57.1365 C18,62.0985 22.038,66.1365 27,66.1365 Z M53,66.1365 C57.962,66.1365 62,62.0985 62,57.1365 C62,52.1745 57.962,48.1365 53,48.1365 C48.038,48.1365 44,52.1745 44,57.1365 C44,62.0985 48.038,66.1365 53,66.1365 Z M27,50.1365 C27.552,50.1365 28,50.5845 28,51.1365 C28,51.6885 27.552,52.1365 27,52.1365 C24.243,52.1365 22,54.3795 22,57.1365 C22,57.6885 21.552,58.1365 21,58.1365 C20.448,58.1365 20,57.6885 20,57.1365 C20,53.2765 23.14,50.1365 27,50.1365 Z M53,50.1365 C53.552,50.1365 54,50.5845 54,51.1365 C54,51.6885 53.552,52.1365 53,52.1365 C50.243,52.1365 48,54.3795 48,57.1365 C48,57.6885 47.552,58.1365 47,58.1365 C46.448,58.1365 46,57.6885 46,57.1365 C46,53.2765 49.14,50.1365 53,50.1365 Z" id="Combined-Shape"></path>
                        </g>
                    </g>
                </g>
            </g>
        </g>
    </g>
</svg>