<?xml version="1.0" encoding="UTF-8"?>
<svg width="80px" height="90px" viewBox="0 0 80 90" version="1.1" xmlns="http://www.w3.org/2000/svg" xmlns:xlink="http://www.w3.org/1999/xlink">
    <!-- Generator: Sketch 43.2 (39069) - http://www.bohemiancoding.com/sketch -->
    <title>Group 11</title>
    <desc>Created with Sketch.</desc>
    <defs></defs>
    <g id="Landing-pages" stroke="none" stroke-width="1" fill="none" fill-rule="evenodd">
        <g id="Desktop-HD" transform="translate(-680.000000, -950.000000)" fill="#0025FF">
            <g id="how-it-works" transform="translate(0.000000, 800.000000)">
                <g id="Group-8" transform="translate(250.000000, 121.000000)">
                    <g id="Group-9" transform="translate(320.000000, 0.000000)">
                        <g id="Group-11" transform="translate(110.000000, 28.000000)">
                            <path d="M35.6622409,2.434005 C38.0579191,1.06291834 41.942801,1.06333049 44.3377591,2.434005 L75.6622409,20.3615294 C78.0579191,21.7326161 80,25.0834174 80,27.8529796 L80,63.62056 C80,66.386887 78.057199,69.7413357 75.6622409,71.1120102 L44.3377591,89.0395346 C41.9420809,90.4106213 38.057199,90.4102091 35.6622409,89.0395346 L4.33775906,71.1120102 C1.94208088,69.7409235 2.7533531e-14,66.3901222 2.57571742e-14,63.62056 L5.32907052e-15,27.8529796 C3.55271368e-15,25.0866526 1.94280102,21.7322039 4.33775906,20.3615294 L35.6622409,2.434005 Z" id="Polygon-2" opacity="0.0399999991"></path>
                            <path d="M59.764,38.606 C61.85,40.618 63,43.321 63,46.218 C63,52.783 58.321,55.336 55.531,56.274 C55.008,56.448 54.441,56.167 54.265,55.644 C54.089,55.121 54.37,54.554 54.894,54.377 C57.679,53.442 61,51.266 61,46.218 C61,43.87 60.068,41.677 58.376,40.046 C56.696,38.426 54.468,37.575 52.13,37.669 L51.472,37.693 L51.19,37.098 C49.145,32.787 44.753,30 40,30 C33.461,30 28.036,35.117 27.651,41.647 L27.583,42.804 L26.448,42.567 C24.614,42.18 22.729,42.64 21.278,43.821 C19.83,44.998 19,46.743 19,48.609 C19,53.32 22.641,54.462 24.811,54.724 C25.359,54.79 25.75,55.289 25.684,55.837 C25.623,56.344 25.191,56.717 24.693,56.717 C24.653,56.717 24.612,56.715 24.572,56.71 C22.795,56.496 17,55.278 17,48.609 C17,46.137 18.099,43.827 20.016,42.268 C21.649,40.942 23.691,40.302 25.758,40.456 C26.706,33.389 32.766,28 40,28 C45.307,28 50.226,30.989 52.708,35.665 C55.361,35.726 57.845,36.757 59.764,38.606 Z M45.6019,60.5913 C45.9329,60.1503 46.5599,60.0623 47.0019,60.3923 C47.4429,60.7243 47.5329,61.3513 47.2009,61.7923 C45.4819,64.0803 42.8569,65.3933 39.9999,65.3933 C35.1699,65.3933 31.2279,61.5663 31.0199,56.7873 L29.7069,58.1003 C29.3159,58.4903 28.6829,58.4903 28.2929,58.1003 C27.9019,57.7093 27.9019,57.0763 28.2929,56.6863 L31.2919,53.6863 C31.2929,53.6863 31.2929,53.6853 31.2939,53.6853 L31.9999,52.9793 L32.7059,53.6853 C32.7069,53.6853 32.7069,53.6863 32.7069,53.6863 L35.7069,56.6863 C36.0979,57.0763 36.0979,57.7093 35.7069,58.1003 C35.5119,58.2953 35.2559,58.3933 34.9999,58.3933 C34.7439,58.3933 34.4879,58.2953 34.2929,58.1003 L33.0219,56.8293 C33.2489,60.4853 36.2869,63.3933 39.9999,63.3933 C42.2219,63.3933 44.2639,62.3713 45.6019,60.5913 Z M50.2928,54.686 C50.6838,54.295 51.3158,54.295 51.7068,54.686 C52.0978,55.077 52.0978,55.71 51.7068,56.1 L48.7078,59.099 C48.7068,59.1 48.7068,59.101 48.7058,59.101 L47.9998,59.807 L47.2938,59.101 C47.2928,59.101 47.2928,59.1 47.2918,59.099 L44.2928,56.1 C43.9018,55.71 43.9018,55.077 44.2928,54.686 C44.6838,54.295 45.3158,54.295 45.7068,54.686 L46.9778,55.957 C46.7508,52.301 43.7128,49.393 39.9998,49.393 C37.7778,49.393 35.7368,50.414 34.3998,52.193 C34.0688,52.634 33.4418,52.722 32.9998,52.392 C32.5588,52.06 32.4688,51.433 32.8008,50.992 C34.5188,48.705 37.1428,47.393 39.9998,47.393 C44.8288,47.393 48.7718,51.22 48.9798,55.999 L50.2928,54.686 Z" id="Combined-Shape"></path>
                        </g>
                    </g>
                </g>
            </g>
        </g>
    </g>
</svg>