<?xml version="1.0" encoding="UTF-8"?>
<svg width="32px" height="32px" viewBox="0 0 32 32" version="1.1" xmlns="http://www.w3.org/2000/svg" xmlns:xlink="http://www.w3.org/1999/xlink">
    <!-- Generator: Sketch 46.2 (44496) - http://www.bohemiancoding.com/sketch -->
    <title>Page 1</title>
    <desc>Created with Sketch.</desc>
    <defs></defs>
    <g id="Landing-pages" stroke="none" stroke-width="1" fill="none" fill-rule="evenodd">
        <g id="dependabot-update" transform="translate(-750.000000, -1765.000000)" fill="#0025FF">
            <g id="Group-16" transform="translate(750.000000, 1765.000000)">
                <g id="Page-1">
                    <path d="M1.33333333,30.6666667 L30.6666667,30.6666667 L30.6666667,10.6666667 L1.33333333,10.6666667 L1.33333333,30.6666667 Z M5.33333333,4 L5.33333333,6 C5.33333333,6.36866667 5.632,6.66666667 6,6.66666667 L10,6.66666667 C10.368,6.66666667 10.6666667,6.36866667 10.6666667,6 L10.6666667,4 L21.3333333,4 L21.3333333,6 C21.3333333,6.36866667 21.632,6.66666667 22,6.66666667 L26,6.66666667 C26.368,6.66666667 26.6666667,6.36866667 26.6666667,6 L26.6666667,4 L30.6666667,4 L30.6666667,9.33333333 L1.33333333,9.33333333 L1.33333333,4 L5.33333333,4 Z M6.66666667,5.33333333 L9.33333333,5.33333333 L9.33333333,1.33333333 L6.66666667,1.33333333 L6.66666667,5.33333333 Z M22.6666667,5.33333333 L25.3333333,5.33333333 L25.3333333,1.33333333 L22.6666667,1.33333333 L22.6666667,5.33333333 Z M31.3333333,2.66666667 L26.6666667,2.66666667 L26.6666667,0.666666667 C26.6666667,0.298 26.368,0 26,0 L22,0 C21.632,0 21.3333333,0.298 21.3333333,0.666666667 L21.3333333,2.66666667 L10.6666667,2.66666667 L10.6666667,0.666666667 C10.6666667,0.298 10.368,0 10,0 L6,0 C5.632,0 5.33333333,0.298 5.33333333,0.666666667 L5.33333333,2.66666667 L0.666666667,2.66666667 C0.298666667,2.66666667 0,2.96466667 0,3.33333333 L0,31.3333333 C0,31.702 0.298666667,32 0.666666667,32 L31.3333333,32 C31.7013333,32 32,31.702 32,31.3333333 L32,3.33333333 C32,2.96466667 31.7013333,2.66666667 31.3333333,2.66666667 L31.3333333,2.66666667 Z" id="Fill-1"></path>
                    <path d="M16.6666667,20 L22.6666667,20 L22.6666667,16 L16.6666667,16 L16.6666667,20 Z M16.6666667,25.3333333 L22.6666667,25.3333333 L22.6666667,21.3333333 L16.6666667,21.3333333 L16.6666667,25.3333333 Z M9.33333333,25.3333333 L15.3333333,25.3333333 L15.3333333,21.3333333 L9.33333333,21.3333333 L9.33333333,25.3333333 Z M9.33333333,20 L15.3333333,20 L15.3333333,16 L9.33333333,16 L9.33333333,20 Z M28.6666667,16 C29.0346667,16 29.3333333,15.702 29.3333333,15.3333333 C29.3333333,14.9646667 29.0346667,14.6666667 28.6666667,14.6666667 L24,14.6666667 L24,12.6666667 C24,12.298 23.7013333,12 23.3333333,12 C22.9653333,12 22.6666667,12.298 22.6666667,12.6666667 L22.6666667,14.6666667 L16.6666667,14.6666667 L16.6666667,12.6666667 C16.6666667,12.298 16.368,12 16,12 C15.632,12 15.3333333,12.298 15.3333333,12.6666667 L15.3333333,14.6666667 L9.33333333,14.6666667 L9.33333333,12.6666667 C9.33333333,12.298 9.03466667,12 8.66666667,12 C8.29866667,12 8,12.298 8,12.6666667 L8,14.6666667 L3.33333333,14.6666667 C2.96533333,14.6666667 2.66666667,14.9646667 2.66666667,15.3333333 C2.66666667,15.702 2.96533333,16 3.33333333,16 L8,16 L8,20 L3.33333333,20 C2.96533333,20 2.66666667,20.298 2.66666667,20.6666667 C2.66666667,21.0353333 2.96533333,21.3333333 3.33333333,21.3333333 L8,21.3333333 L8,25.3333333 L3.33333333,25.3333333 C2.96533333,25.3333333 2.66666667,25.6313333 2.66666667,26 C2.66666667,26.3686667 2.96533333,26.6666667 3.33333333,26.6666667 L8,26.6666667 L8,28.6666667 C8,29.0353333 8.29866667,29.3333333 8.66666667,29.3333333 C9.03466667,29.3333333 9.33333333,29.0353333 9.33333333,28.6666667 L9.33333333,26.6666667 L15.3333333,26.6666667 L15.3333333,28.6666667 C15.3333333,29.0353333 15.632,29.3333333 16,29.3333333 C16.368,29.3333333 16.6666667,29.0353333 16.6666667,28.6666667 L16.6666667,26.6666667 L22.6666667,26.6666667 L22.6666667,28.6666667 C22.6666667,29.0353333 22.9653333,29.3333333 23.3333333,29.3333333 C23.7013333,29.3333333 24,29.0353333 24,28.6666667 L24,26.6666667 L28.6666667,26.6666667 C29.0346667,26.6666667 29.3333333,26.3686667 29.3333333,26 C29.3333333,25.6313333 29.0346667,25.3333333 28.6666667,25.3333333 L24,25.3333333 L24,21.3333333 L28.6666667,21.3333333 C29.0346667,21.3333333 29.3333333,21.0353333 29.3333333,20.6666667 C29.3333333,20.298 29.0346667,20 28.6666667,20 L24,20 L24,16 L28.6666667,16 Z" id="Fill-3"></path>
                </g>
            </g>
        </g>
    </g>
</svg>