<svg xmlns="http://www.w3.org/2000/svg" width="16px" height="16px" viewBox="0 0 768 384">
      <g id="php-logo" fill-rule="nonzero" fill="#58379F">
        <path
          d="M61.574857,80.7643087 L175.188268,80.7643087 C208.537211,81.0460759 232.701258,90.6078535 247.680407,109.450438 C262.658756,128.293817 267.605147,154.026962 262.517979,186.649872 C260.539343,201.555675 256.1587,216.179711 249.376129,230.522775 C242.875593,244.86584 233.831473,257.802456 222.244569,269.33342 C208.113281,283.957456 192.993355,293.238262 176.88399,297.175839 C160.774626,301.113177 144.099754,303.081807 126.860175,303.081807 L75.9884986,303.081807 L59.8791344,383.234225 L0.95277582,383.234225 L61.574857,80.7643087 M111.174742,128.85576 L85.7389033,255.41221 C87.4344659,255.693182 89.1301884,255.834065 90.826071,255.834065 L96.7610999,255.834065 C123.892661,256.115036 146.501761,253.443581 164.590002,247.818823 C182.677442,241.912935 194.829854,221.382852 201.048037,186.228017 C206.134964,156.698179 201.047797,139.683898 185.786534,135.183582 C170.807385,130.683983 152.01286,128.574709 129.403759,128.85576 C126.012154,129.136731 122.762046,129.277615 119.653354,129.277615 C116.827017,129.277774 113.859502,129.277774 110.750811,129.277615 L111.174742,128.85576"
          id="path8"
        />
        <path
          d="M329.658994,0.213913855 L388.161422,0.213913855 L371.628127,80.7881873 L424.195526,80.7881873 C453.022809,81.3509258 474.501695,87.2568138 488.632983,98.5060904 C503.046624,109.756083 507.285931,131.129796 501.350902,162.628025 L472.947549,303.105685 L413.59726,303.105685 L440.728821,168.955848 C443.554598,154.894551 442.706897,144.910122 438.185237,139.004155 C433.663097,133.098346 423.912372,130.145203 408.934023,130.145203 L361.877722,129.723348 L327.11541,303.105685 L268.612982,303.105685 L329.658994,0.213913855"
          id="path10"
        />
        <path
          d="M564.180622,80.7643087 L677.794033,80.7643087 C711.142976,81.0460759 735.307022,90.6078535 750.286172,109.450438 C765.264521,128.293817 770.210912,154.026962 765.123744,186.649872 C763.145108,201.555675 758.764544,216.179711 751.981894,230.522775 C745.481358,244.86584 736.437237,257.802456 724.850333,269.33342 C710.719045,283.957456 695.599119,293.238262 679.489755,297.175839 C663.380391,301.113177 646.705519,303.081807 629.46594,303.081807 L578.594263,303.081807 L562.484899,383.234225 L503.558541,383.234225 L564.180622,80.7643087 M613.780506,128.85576 L588.344668,255.41221 C590.040311,255.693182 591.736033,255.834065 593.431836,255.834065 L599.366865,255.834065 C626.498425,256.115036 649.107526,253.443581 667.195767,247.818823 C685.283207,241.912935 697.435619,221.382852 703.653801,186.228017 C708.740729,156.698179 703.653561,139.683898 688.392298,135.183582 C673.413149,130.683983 654.618624,128.574709 632.009524,128.85576 C628.617919,129.136731 625.36781,129.277615 622.259119,129.277615 C619.432781,129.277774 616.465267,129.277774 613.356576,129.277615 L613.780506,128.85576"
          id="path12"
        />
      </g>
    </svg>
