<?xml version="1.0" encoding="UTF-8"?>
<svg width="80px" height="90px" viewBox="0 0 80 90" version="1.1" xmlns="http://www.w3.org/2000/svg" xmlns:xlink="http://www.w3.org/1999/xlink">
    <!-- Generator: Sketch 43.2 (39069) - http://www.bohemiancoding.com/sketch -->
    <title>Group 11</title>
    <desc>Created with Sketch.</desc>
    <defs></defs>
    <g id="Landing-pages" stroke="none" stroke-width="1" fill="none" fill-rule="evenodd">
        <g id="Desktop-HD" transform="translate(-1000.000000, -948.000000)" fill="#0025FF">
            <g id="how-it-works" transform="translate(0.000000, 800.000000)">
                <g id="Group-8" transform="translate(250.000000, 121.000000)">
                    <g id="Group-5" transform="translate(640.000000, 0.000000)">
                        <g id="Group-11" transform="translate(110.000000, 26.000000)">
                            <path d="M35.6622409,2.434005 C38.0579191,1.06291834 41.942801,1.06333049 44.3377591,2.434005 L75.6622409,20.3615294 C78.0579191,21.7326161 80,25.0834174 80,27.8529796 L80,63.62056 C80,66.386887 78.057199,69.7413357 75.6622409,71.1120102 L44.3377591,89.0395346 C41.9420809,90.4106213 38.057199,90.4102091 35.6622409,89.0395346 L4.33775906,71.1120102 C1.94208088,69.7409235 2.7533531e-14,66.3901222 2.57571742e-14,63.62056 L5.32907052e-15,27.8529796 C3.55271368e-15,25.0866526 1.94280102,21.7322039 4.33775906,20.3615294 L35.6622409,2.434005 Z" id="Polygon-2" opacity="0.0399999991"></path>
                            <path d="M57,38 C56.527,38 56.06,37.932 55.611,37.803 L57.707,35.707 C57.993,35.421 58.079,34.991 57.924,34.617 C57.77,34.243 57.404,34 57,34 L52.11,34 C52.044,33.674 52,33.342 52,33 C52,30.243 54.243,28 57,28 C59.757,28 62,30.243 62,33 C62,35.757 59.757,38 57,38 L57,38 Z M54.586,36 L41,49.586 L27.414,36 L54.586,36 Z M57,26 C53.141,26 50,29.141 50,33 C50,33.339 50.037,33.671 50.083,34 L31.454,34 L24.454,26 L16,26 L16,28 L23.546,28 L28.796,34 L25,34 C24.596,34 24.23,34.243 24.076,34.617 C23.921,34.991 24.007,35.421 24.293,35.707 L40,51.414 L40,68 L33,68 C32.447,68 32,68.447 32,69 C32,69.553 32.447,70 33,70 L49,70 C49.553,70 50,69.553 50,69 C50,68.447 49.553,68 49,68 L42,68 L42,51.414 L54.065,39.349 C54.981,39.771 55.98,40 57,40 C60.859,40 64,36.859 64,33 C64,29.141 60.859,26 57,26 L57,26 Z" id="Page-1"></path>
                        </g>
                    </g>
                </g>
            </g>
        </g>
    </g>
</svg>