<svg width="10" height="14" viewBox="0 0 10 14" fill="none" xmlns="http://www.w3.org/2000/svg">
<path fill-rule="evenodd" clip-rule="evenodd" d="M8 0C6.89 0 6 0.89 6 2C6 2.73 6.41 3.38 7 3.72V5L5 7L3 5V3.72C3.59 3.38 4 2.74 4 2C4 0.89 3.11 0 2 0C0.89 0 0 0.89 0 2C0 2.73 0.41 3.38 1 3.72V5.5L4 8.5V10.28C3.41 10.62 3 11.26 3 12C3 13.11 3.89 14 5 14C6.11 14 7 13.11 7 12C7 11.27 6.59 10.62 6 10.28V8.5L9 5.5V3.72C9.59 3.38 10 2.74 10 2C10 0.89 9.11 0 8 0ZM1.99999 3.2C1.33999 3.2 0.799988 2.65 0.799988 2C0.799988 1.35 1.34999 0.800003 1.99999 0.800003C2.64999 0.800003 3.19999 1.35 3.19999 2C3.19999 2.65 2.64999 3.2 1.99999 3.2ZM4.99999 13.2C4.33999 13.2 3.79999 12.65 3.79999 12C3.79999 11.35 4.34999 10.8 4.99999 10.8C5.64999 10.8 6.19999 11.35 6.19999 12C6.19999 12.65 5.64999 13.2 4.99999 13.2ZM7.99999 3.2C7.33999 3.2 6.79999 2.65 6.79999 2C6.79999 1.35 7.34999 0.800003 7.99999 0.800003C8.64999 0.800003 9.19999 1.35 9.19999 2C9.19999 2.65 8.64999 3.2 7.99999 3.2Z" fill="#1B1F23"/>
</svg>
