<?xml version="1.0" standalone="no"?>
<!DOCTYPE svg PUBLIC "-//W3C//DTD SVG 20010904//EN"
 "http://www.w3.org/TR/2001/REC-SVG-20010904/DTD/svg10.dtd">
<svg version="1.0" xmlns="http://www.w3.org/2000/svg"
 width="416.000000pt" height="416.000000pt" viewBox="0 0 416.000000 416.000000"
 preserveAspectRatio="xMidYMid meet">
<metadata>
Created by potrace 1.15, written by Peter Selinger 2001-2017
</metadata>
<g transform="translate(0.000000,416.000000) scale(0.100000,-0.100000)"
fill="#000000" stroke="none">
<path d="M1885 3670 c-38 -61 -86 -135 -105 -165 -48 -76 -195 -304 -315 -489
-55 -85 -138 -214 -185 -287 -47 -73 -132 -205 -190 -295 -58 -90 -150 -233
-205 -318 -55 -86 -131 -204 -170 -264 -38 -59 -93 -143 -121 -187 -28 -44
-92 -144 -143 -222 -50 -79 -91 -151 -90 -160 0 -10 198 -194 451 -422 l450
-403 59 11 c93 17 144 26 664 111 270 44 516 85 548 90 31 6 84 15 117 20 33
6 86 14 118 20 31 5 278 46 547 91 558 92 535 87 542 105 3 8 -53 103 -125
212 -71 108 -208 316 -304 462 -95 146 -214 327 -263 404 -91 139 -336 513
-793 1206 -136 206 -279 423 -317 482 -39 59 -77 107 -85 107 -8 0 -46 -49
-85 -109z m591 -705 c246 -374 498 -756 559 -850 62 -93 257 -390 433 -658
177 -269 322 -490 322 -493 0 -2 -10 2 -22 9 -13 8 -165 86 -338 174 -173 88
-462 235 -641 327 l-327 166 -11 45 c-6 25 -15 64 -20 88 -12 54 -27 119 -40
180 -14 60 -28 125 -40 180 -5 23 -14 62 -20 87 -5 25 -14 65 -20 90 -5 25
-15 68 -21 95 -6 28 -15 68 -20 90 -5 22 -14 63 -20 90 -13 55 -26 117 -41
183 -5 23 -13 62 -19 87 -5 25 -14 64 -19 88 -12 54 -27 119 -40 180 -6 26
-16 68 -22 95 -6 26 -15 66 -20 90 -11 49 -21 94 -49 217 -11 50 -23 101 -26
115 -3 16 -2 21 4 15 5 -5 211 -316 458 -690z m128 -1434 c83 -43 309 -159
501 -257 509 -259 691 -354 681 -354 -8 0 -1969 -325 -2334 -386 -84 -14 -155
-25 -156 -23 -3 4 35 185 153 734 16 77 33 154 36 172 7 33 15 38 99 48 21 2
46 7 55 9 9 3 38 8 65 11 27 3 51 7 55 9 3 2 31 7 61 11 30 4 57 8 60 10 3 2
30 6 60 10 30 4 57 8 60 10 3 2 25 6 50 9 25 4 117 19 205 35 88 16 169 29
179 30 10 0 87 -34 170 -78z m-1144 -87 c0 -15 -191 -901 -198 -917 -6 -16
-75 41 -427 358 -231 207 -421 380 -422 384 -3 5 978 177 1030 180 9 1 17 -2
17 -5z"/>
</g>
</svg>
