<?xml version="1.0" encoding="UTF-8"?>
<!DOCTYPE svg PUBLIC "-//W3C//DTD SVG 1.1//EN" "http://www.w3.org/Graphics/SVG/1.1/DTD/svg11.dtd">
<!-- Creator: CorelDRAW X6 -->
<svg xmlns="http://www.w3.org/2000/svg" xml:space="preserve" width="656px" height="137px" version="1.1" style="shape-rendering:geometricPrecision; text-rendering:geometricPrecision; image-rendering:optimizeQuality; fill-rule:evenodd; clip-rule:evenodd"
viewBox="0 0 672 140"
 xmlns:xlink="http://www.w3.org/1999/xlink">
 <defs>
  <style type="text/css">
   <![CDATA[
    .fil1 {fill:#050708;fill-rule:nonzero}
    .fil0 {fill:#32689B;fill-rule:nonzero}
   ]]>
  </style>
 </defs>
 <g id="Ebene_x0020_1">
  <metadata id="CorelCorpID_0Corel-Layer"/>
  <path class="fil0" d="M114 25c0,3 -3,5 -6,5l-103 0c-3,0 -5,-2 -5,-5 0,-3 2,-6 5,-6l103 0c3,0 6,3 6,6z"/>
  <path class="fil0" d="M114 5c0,3 -3,6 -6,6l-103 0c-3,0 -5,-3 -5,-6 0,-3 2,-5 5,-5l103 0c3,0 6,2 6,5z"/>
  <path class="fil0" d="M114 44c0,3 -3,5 -6,5l-103 0c-3,0 -5,-2 -5,-5 0,-3 2,-5 5,-5l103 0c3,0 6,2 6,5z"/>
  <path class="fil1" d="M114 81c0,3 -3,5 -6,5l-103 0c-3,0 -5,-2 -5,-5 0,-3 2,-5 5,-5l103 0c3,0 6,2 6,5z"/>
  <path class="fil1" d="M114 63c0,3 -3,5 -6,5l-103 0c-3,0 -5,-2 -5,-5 0,-3 2,-6 5,-6l103 0c3,0 6,3 6,6z"/>
  <path class="fil1" d="M114 100c0,3 -3,5 -6,5l-103 0c-3,0 -5,-2 -5,-5 0,-3 2,-5 5,-5l103 0c3,0 6,2 6,5z"/>
  <g id="_255157808">
   <path class="fil1" d="M148 95c6,4 14,6 23,6 15,0 25,-8 25,-21 0,-12 -6,-19 -21,-24 -17,-6 -27,-15 -27,-29 0,-16 13,-27 30,-27 10,0 18,3 21,5l-3 6c-2,-2 -9,-4 -18,-4 -17,0 -23,10 -23,19 0,11 7,17 22,23 17,7 26,15 26,30 0,15 -10,29 -33,29 -9,0 -19,-3 -25,-7l3 -6z"/>
   <path class="fil1" d="M246 108c-20,0 -34,-15 -34,-38 0,-26 16,-40 35,-40 20,0 34,16 34,38 0,28 -19,40 -35,40l0 0zm0 -6l0 0c15,0 28,-14 28,-33 0,-14 -8,-33 -28,-33 -19,0 -27,17 -27,33 0,19 12,33 27,33l0 0z"/>
   <path class="fil1" d="M291 50c0,-7 -1,-12 -1,-18l7 0 0 13 1 0c4,-8 13,-15 25,-15 7,0 26,4 26,32l0 44 -7 0 0 -44c0,-13 -5,-26 -21,-26 -10,0 -19,8 -22,18 0,1 -1,4 -1,6l0 46 -7 0 0 -56z"/>
   <path class="fil1" d="M410 88c0,6 1,12 1,18l-6 0 -1 -11 -1 0c-3,6 -12,13 -24,13 -15,0 -21,-11 -21,-21 0,-17 15,-27 45,-27l0 -2c0,-7 -1,-22 -19,-22 -7,0 -13,2 -19,6l-2 -5c7,-5 15,-7 22,-7 21,0 25,16 25,29l0 29zm-7 -22l0 0c-16,0 -38,2 -38,20 0,11 8,16 15,16 13,0 20,-8 22,-15 1,-2 1,-3 1,-5l0 -16z"/>
   <path class="fil1" d="M435 16l0 16 21 0 0 6 -21 0 0 48c0,10 3,15 11,15 4,0 7,0 9,-1l1 6c-3,1 -6,2 -11,2 -5,0 -10,-2 -13,-5 -3,-4 -4,-11 -4,-18l0 -47 -13 0 0 -6 13 0 0 -14 7 -2z"/>
   <path class="fil1" d="M472 32l19 48c2,6 4,12 5,16l1 0c1,-4 3,-10 5,-16l19 -48 7 0 -22 55c-9,23 -15,37 -25,46 -6,4 -11,7 -13,7l-2 -6c4,-1 8,-4 13,-8 4,-4 9,-10 12,-19 1,-1 1,-2 1,-3 0,-1 0,-2 -1,-3l-27 -69 8 0z"/>
   <path class="fil1" d="M536 56c0,-10 0,-17 0,-24l7 0 0 14 0 0c6,-10 15,-16 28,-16 19,0 32,16 32,38 0,26 -16,40 -34,40 -11,0 -20,-5 -25,-14l0 0 0 43 -8 0 0 -81zm8 21l0 0c0,2 0,4 0,6 3,11 13,19 25,19 17,0 26,-14 26,-34 0,-17 -9,-32 -26,-32 -11,0 -21,8 -24,20 -1,2 -1,4 -1,6l0 15z"/>
   <path class="fil1" d="M617 68c0,24 13,33 28,33 11,0 16,-2 20,-4l2 6c-3,1 -10,5 -23,5 -21,0 -35,-16 -35,-38 0,-24 14,-40 34,-40 24,0 29,23 29,34 0,2 0,3 -1,4l-54 0zm47 -6l0 0c0,-10 -4,-26 -22,-26 -17,0 -24,15 -25,26l47 0z"/>
  </g>
 </g>
</svg>
